<?xml version="1.0" encoding="utf-8" standalone="no"?>
<!DOCTYPE svg PUBLIC "-//W3C//DTD SVG 1.1//EN"
  "http://www.w3.org/Graphics/SVG/1.1/DTD/svg11.dtd">
<!-- Created with matplotlib (https://matplotlib.org/) -->
<svg height="451.44pt" version="1.1" viewBox="0 0 526.32 451.44" width="526.32pt" xmlns="http://www.w3.org/2000/svg" xmlns:xlink="http://www.w3.org/1999/xlink">
 <metadata>
  <rdf:RDF xmlns:cc="http://creativecommons.org/ns#" xmlns:dc="http://purl.org/dc/elements/1.1/" xmlns:rdf="http://www.w3.org/1999/02/22-rdf-syntax-ns#">
   <cc:Work>
    <dc:type rdf:resource="http://purl.org/dc/dcmitype/StillImage"/>
    <dc:date>2021-11-18T11:05:37.144567</dc:date>
    <dc:format>image/svg+xml</dc:format>
    <dc:creator>
     <cc:Agent>
      <dc:title>Matplotlib v3.3.2, https://matplotlib.org/</dc:title>
     </cc:Agent>
    </dc:creator>
   </cc:Work>
  </rdf:RDF>
 </metadata>
 <defs>
  <style type="text/css">*{stroke-linecap:butt;stroke-linejoin:round;}</style>
 </defs>
 <g id="figure_1">
  <g id="patch_1">
   <path d="M 0 451.44 
L 526.32 451.44 
L 526.32 0 
L 0 0 
z
" style="fill:#ffffff;"/>
  </g>
  <g id="axes_1">
   <g id="patch_2">
    <path d="M 42.1056 141.938047 
L 497.3724 141.938047 
L 497.3724 27.0864 
L 42.1056 27.0864 
z
" style="fill:#ffffff;"/>
   </g>
   <g id="matplotlib.axis_1">
    <g id="xtick_1">
     <g id="line2d_1">
      <path clip-path="url(#pf52a304f5f)" d="M 60.730151 141.938047 
L 60.730151 27.0864 
" style="fill:none;stroke:#b0b0b0;stroke-linecap:square;stroke-width:0.8;"/>
     </g>
     <g id="line2d_2">
      <defs>
       <path d="M 0 0 
L 0 3.5 
" id="m2d3516f695" style="stroke:#000000;stroke-width:0.8;"/>
      </defs>
      <g>
       <use style="stroke:#000000;stroke-width:0.8;" x="60.730151" xlink:href="#m2d3516f695" y="141.938047"/>
      </g>
     </g>
     <g id="text_1">
      <!-- 0 -->
      <g transform="translate(57.548901 156.536485)scale(0.1 -0.1)">
       <defs>
        <path d="M 31.78125 66.40625 
Q 24.171875 66.40625 20.328125 58.90625 
Q 16.5 51.421875 16.5 36.375 
Q 16.5 21.390625 20.328125 13.890625 
Q 24.171875 6.390625 31.78125 6.390625 
Q 39.453125 6.390625 43.28125 13.890625 
Q 47.125 21.390625 47.125 36.375 
Q 47.125 51.421875 43.28125 58.90625 
Q 39.453125 66.40625 31.78125 66.40625 
z
M 31.78125 74.21875 
Q 44.046875 74.21875 50.515625 64.515625 
Q 56.984375 54.828125 56.984375 36.375 
Q 56.984375 17.96875 50.515625 8.265625 
Q 44.046875 -1.421875 31.78125 -1.421875 
Q 19.53125 -1.421875 13.0625 8.265625 
Q 6.59375 17.96875 6.59375 36.375 
Q 6.59375 54.828125 13.0625 64.515625 
Q 19.53125 74.21875 31.78125 74.21875 
z
" id="DejaVuSans-48"/>
       </defs>
       <use xlink:href="#DejaVuSans-48"/>
      </g>
     </g>
    </g>
    <g id="xtick_2">
     <g id="line2d_3">
      <path clip-path="url(#pf52a304f5f)" d="M 112.465015 141.938047 
L 112.465015 27.0864 
" style="fill:none;stroke:#b0b0b0;stroke-linecap:square;stroke-width:0.8;"/>
     </g>
     <g id="line2d_4">
      <g>
       <use style="stroke:#000000;stroke-width:0.8;" x="112.465015" xlink:href="#m2d3516f695" y="141.938047"/>
      </g>
     </g>
     <g id="text_2">
      <!-- 25 -->
      <g transform="translate(106.102515 156.536485)scale(0.1 -0.1)">
       <defs>
        <path d="M 19.1875 8.296875 
L 53.609375 8.296875 
L 53.609375 0 
L 7.328125 0 
L 7.328125 8.296875 
Q 12.9375 14.109375 22.625 23.890625 
Q 32.328125 33.6875 34.8125 36.53125 
Q 39.546875 41.84375 41.421875 45.53125 
Q 43.3125 49.21875 43.3125 52.78125 
Q 43.3125 58.59375 39.234375 62.25 
Q 35.15625 65.921875 28.609375 65.921875 
Q 23.96875 65.921875 18.8125 64.3125 
Q 13.671875 62.703125 7.8125 59.421875 
L 7.8125 69.390625 
Q 13.765625 71.78125 18.9375 73 
Q 24.125 74.21875 28.421875 74.21875 
Q 39.75 74.21875 46.484375 68.546875 
Q 53.21875 62.890625 53.21875 53.421875 
Q 53.21875 48.921875 51.53125 44.890625 
Q 49.859375 40.875 45.40625 35.40625 
Q 44.1875 33.984375 37.640625 27.21875 
Q 31.109375 20.453125 19.1875 8.296875 
z
" id="DejaVuSans-50"/>
        <path d="M 10.796875 72.90625 
L 49.515625 72.90625 
L 49.515625 64.59375 
L 19.828125 64.59375 
L 19.828125 46.734375 
Q 21.96875 47.46875 24.109375 47.828125 
Q 26.265625 48.1875 28.421875 48.1875 
Q 40.625 48.1875 47.75 41.5 
Q 54.890625 34.8125 54.890625 23.390625 
Q 54.890625 11.625 47.5625 5.09375 
Q 40.234375 -1.421875 26.90625 -1.421875 
Q 22.3125 -1.421875 17.546875 -0.640625 
Q 12.796875 0.140625 7.71875 1.703125 
L 7.71875 11.625 
Q 12.109375 9.234375 16.796875 8.0625 
Q 21.484375 6.890625 26.703125 6.890625 
Q 35.15625 6.890625 40.078125 11.328125 
Q 45.015625 15.765625 45.015625 23.390625 
Q 45.015625 31 40.078125 35.4375 
Q 35.15625 39.890625 26.703125 39.890625 
Q 22.75 39.890625 18.8125 39.015625 
Q 14.890625 38.140625 10.796875 36.28125 
z
" id="DejaVuSans-53"/>
       </defs>
       <use xlink:href="#DejaVuSans-50"/>
       <use x="63.623047" xlink:href="#DejaVuSans-53"/>
      </g>
     </g>
    </g>
    <g id="xtick_3">
     <g id="line2d_5">
      <path clip-path="url(#pf52a304f5f)" d="M 164.199878 141.938047 
L 164.199878 27.0864 
" style="fill:none;stroke:#b0b0b0;stroke-linecap:square;stroke-width:0.8;"/>
     </g>
     <g id="line2d_6">
      <g>
       <use style="stroke:#000000;stroke-width:0.8;" x="164.199878" xlink:href="#m2d3516f695" y="141.938047"/>
      </g>
     </g>
     <g id="text_3">
      <!-- 50 -->
      <g transform="translate(157.837378 156.536485)scale(0.1 -0.1)">
       <use xlink:href="#DejaVuSans-53"/>
       <use x="63.623047" xlink:href="#DejaVuSans-48"/>
      </g>
     </g>
    </g>
    <g id="xtick_4">
     <g id="line2d_7">
      <path clip-path="url(#pf52a304f5f)" d="M 215.934742 141.938047 
L 215.934742 27.0864 
" style="fill:none;stroke:#b0b0b0;stroke-linecap:square;stroke-width:0.8;"/>
     </g>
     <g id="line2d_8">
      <g>
       <use style="stroke:#000000;stroke-width:0.8;" x="215.934742" xlink:href="#m2d3516f695" y="141.938047"/>
      </g>
     </g>
     <g id="text_4">
      <!-- 75 -->
      <g transform="translate(209.572242 156.536485)scale(0.1 -0.1)">
       <defs>
        <path d="M 8.203125 72.90625 
L 55.078125 72.90625 
L 55.078125 68.703125 
L 28.609375 0 
L 18.3125 0 
L 43.21875 64.59375 
L 8.203125 64.59375 
z
" id="DejaVuSans-55"/>
       </defs>
       <use xlink:href="#DejaVuSans-55"/>
       <use x="63.623047" xlink:href="#DejaVuSans-53"/>
      </g>
     </g>
    </g>
    <g id="xtick_5">
     <g id="line2d_9">
      <path clip-path="url(#pf52a304f5f)" d="M 267.669605 141.938047 
L 267.669605 27.0864 
" style="fill:none;stroke:#b0b0b0;stroke-linecap:square;stroke-width:0.8;"/>
     </g>
     <g id="line2d_10">
      <g>
       <use style="stroke:#000000;stroke-width:0.8;" x="267.669605" xlink:href="#m2d3516f695" y="141.938047"/>
      </g>
     </g>
     <g id="text_5">
      <!-- 100 -->
      <g transform="translate(258.125855 156.536485)scale(0.1 -0.1)">
       <defs>
        <path d="M 12.40625 8.296875 
L 28.515625 8.296875 
L 28.515625 63.921875 
L 10.984375 60.40625 
L 10.984375 69.390625 
L 28.421875 72.90625 
L 38.28125 72.90625 
L 38.28125 8.296875 
L 54.390625 8.296875 
L 54.390625 0 
L 12.40625 0 
z
" id="DejaVuSans-49"/>
       </defs>
       <use xlink:href="#DejaVuSans-49"/>
       <use x="63.623047" xlink:href="#DejaVuSans-48"/>
       <use x="127.246094" xlink:href="#DejaVuSans-48"/>
      </g>
     </g>
    </g>
    <g id="xtick_6">
     <g id="line2d_11">
      <path clip-path="url(#pf52a304f5f)" d="M 319.404469 141.938047 
L 319.404469 27.0864 
" style="fill:none;stroke:#b0b0b0;stroke-linecap:square;stroke-width:0.8;"/>
     </g>
     <g id="line2d_12">
      <g>
       <use style="stroke:#000000;stroke-width:0.8;" x="319.404469" xlink:href="#m2d3516f695" y="141.938047"/>
      </g>
     </g>
     <g id="text_6">
      <!-- 125 -->
      <g transform="translate(309.860719 156.536485)scale(0.1 -0.1)">
       <use xlink:href="#DejaVuSans-49"/>
       <use x="63.623047" xlink:href="#DejaVuSans-50"/>
       <use x="127.246094" xlink:href="#DejaVuSans-53"/>
      </g>
     </g>
    </g>
    <g id="xtick_7">
     <g id="line2d_13">
      <path clip-path="url(#pf52a304f5f)" d="M 371.139333 141.938047 
L 371.139333 27.0864 
" style="fill:none;stroke:#b0b0b0;stroke-linecap:square;stroke-width:0.8;"/>
     </g>
     <g id="line2d_14">
      <g>
       <use style="stroke:#000000;stroke-width:0.8;" x="371.139333" xlink:href="#m2d3516f695" y="141.938047"/>
      </g>
     </g>
     <g id="text_7">
      <!-- 150 -->
      <g transform="translate(361.595583 156.536485)scale(0.1 -0.1)">
       <use xlink:href="#DejaVuSans-49"/>
       <use x="63.623047" xlink:href="#DejaVuSans-53"/>
       <use x="127.246094" xlink:href="#DejaVuSans-48"/>
      </g>
     </g>
    </g>
    <g id="xtick_8">
     <g id="line2d_15">
      <path clip-path="url(#pf52a304f5f)" d="M 422.874196 141.938047 
L 422.874196 27.0864 
" style="fill:none;stroke:#b0b0b0;stroke-linecap:square;stroke-width:0.8;"/>
     </g>
     <g id="line2d_16">
      <g>
       <use style="stroke:#000000;stroke-width:0.8;" x="422.874196" xlink:href="#m2d3516f695" y="141.938047"/>
      </g>
     </g>
     <g id="text_8">
      <!-- 175 -->
      <g transform="translate(413.330446 156.536485)scale(0.1 -0.1)">
       <use xlink:href="#DejaVuSans-49"/>
       <use x="63.623047" xlink:href="#DejaVuSans-55"/>
       <use x="127.246094" xlink:href="#DejaVuSans-53"/>
      </g>
     </g>
    </g>
    <g id="xtick_9">
     <g id="line2d_17">
      <path clip-path="url(#pf52a304f5f)" d="M 474.60906 141.938047 
L 474.60906 27.0864 
" style="fill:none;stroke:#b0b0b0;stroke-linecap:square;stroke-width:0.8;"/>
     </g>
     <g id="line2d_18">
      <g>
       <use style="stroke:#000000;stroke-width:0.8;" x="474.60906" xlink:href="#m2d3516f695" y="141.938047"/>
      </g>
     </g>
     <g id="text_9">
      <!-- 200 -->
      <g transform="translate(465.06531 156.536485)scale(0.1 -0.1)">
       <use xlink:href="#DejaVuSans-50"/>
       <use x="63.623047" xlink:href="#DejaVuSans-48"/>
       <use x="127.246094" xlink:href="#DejaVuSans-48"/>
      </g>
     </g>
    </g>
   </g>
   <g id="matplotlib.axis_2">
    <g id="ytick_1">
     <g id="line2d_19">
      <path clip-path="url(#pf52a304f5f)" d="M 42.1056 134.010706 
L 497.3724 134.010706 
" style="fill:none;stroke:#b0b0b0;stroke-linecap:square;stroke-width:0.8;"/>
     </g>
     <g id="line2d_20">
      <defs>
       <path d="M 0 0 
L -3.5 0 
" id="m1a8f1c00c8" style="stroke:#000000;stroke-width:0.8;"/>
      </defs>
      <g>
       <use style="stroke:#000000;stroke-width:0.8;" x="42.1056" xlink:href="#m1a8f1c00c8" y="134.010706"/>
      </g>
     </g>
     <g id="text_10">
      <!-- −0.4 -->
      <g transform="translate(10.822787 137.809925)scale(0.1 -0.1)">
       <defs>
        <path d="M 10.59375 35.5 
L 73.1875 35.5 
L 73.1875 27.203125 
L 10.59375 27.203125 
z
" id="DejaVuSans-8722"/>
        <path d="M 10.6875 12.40625 
L 21 12.40625 
L 21 0 
L 10.6875 0 
z
" id="DejaVuSans-46"/>
        <path d="M 37.796875 64.3125 
L 12.890625 25.390625 
L 37.796875 25.390625 
z
M 35.203125 72.90625 
L 47.609375 72.90625 
L 47.609375 25.390625 
L 58.015625 25.390625 
L 58.015625 17.1875 
L 47.609375 17.1875 
L 47.609375 0 
L 37.796875 0 
L 37.796875 17.1875 
L 4.890625 17.1875 
L 4.890625 26.703125 
z
" id="DejaVuSans-52"/>
       </defs>
       <use xlink:href="#DejaVuSans-8722"/>
       <use x="83.789062" xlink:href="#DejaVuSans-48"/>
       <use x="147.412109" xlink:href="#DejaVuSans-46"/>
       <use x="179.199219" xlink:href="#DejaVuSans-52"/>
      </g>
     </g>
    </g>
    <g id="ytick_2">
     <g id="line2d_21">
      <path clip-path="url(#pf52a304f5f)" d="M 42.1056 102.937422 
L 497.3724 102.937422 
" style="fill:none;stroke:#b0b0b0;stroke-linecap:square;stroke-width:0.8;"/>
     </g>
     <g id="line2d_22">
      <g>
       <use style="stroke:#000000;stroke-width:0.8;" x="42.1056" xlink:href="#m1a8f1c00c8" y="102.937422"/>
      </g>
     </g>
     <g id="text_11">
      <!-- −0.2 -->
      <g transform="translate(10.822787 106.736641)scale(0.1 -0.1)">
       <use xlink:href="#DejaVuSans-8722"/>
       <use x="83.789062" xlink:href="#DejaVuSans-48"/>
       <use x="147.412109" xlink:href="#DejaVuSans-46"/>
       <use x="179.199219" xlink:href="#DejaVuSans-50"/>
      </g>
     </g>
    </g>
    <g id="ytick_3">
     <g id="line2d_23">
      <path clip-path="url(#pf52a304f5f)" d="M 42.1056 71.864139 
L 497.3724 71.864139 
" style="fill:none;stroke:#b0b0b0;stroke-linecap:square;stroke-width:0.8;"/>
     </g>
     <g id="line2d_24">
      <g>
       <use style="stroke:#000000;stroke-width:0.8;" x="42.1056" xlink:href="#m1a8f1c00c8" y="71.864139"/>
      </g>
     </g>
     <g id="text_12">
      <!-- 0.0 -->
      <g transform="translate(19.202475 75.663357)scale(0.1 -0.1)">
       <use xlink:href="#DejaVuSans-48"/>
       <use x="63.623047" xlink:href="#DejaVuSans-46"/>
       <use x="95.410156" xlink:href="#DejaVuSans-48"/>
      </g>
     </g>
    </g>
    <g id="ytick_4">
     <g id="line2d_25">
      <path clip-path="url(#pf52a304f5f)" d="M 42.1056 40.790855 
L 497.3724 40.790855 
" style="fill:none;stroke:#b0b0b0;stroke-linecap:square;stroke-width:0.8;"/>
     </g>
     <g id="line2d_26">
      <g>
       <use style="stroke:#000000;stroke-width:0.8;" x="42.1056" xlink:href="#m1a8f1c00c8" y="40.790855"/>
      </g>
     </g>
     <g id="text_13">
      <!-- 0.2 -->
      <g transform="translate(19.202475 44.590074)scale(0.1 -0.1)">
       <use xlink:href="#DejaVuSans-48"/>
       <use x="63.623047" xlink:href="#DejaVuSans-46"/>
       <use x="95.410156" xlink:href="#DejaVuSans-50"/>
      </g>
     </g>
    </g>
   </g>
   <g id="line2d_27">
    <path clip-path="url(#pf52a304f5f)" d="M 62.799545 112.043955 
L 64.86894 112.153475 
L 66.938335 111.928075 
L 69.007729 111.316105 
L 71.077124 110.179628 
L 73.146518 108.453787 
L 75.215913 106.49672 
L 79.354702 100.952443 
L 81.424096 97.597192 
L 83.493491 93.791463 
L 87.63228 85.034257 
L 91.771069 76.336368 
L 93.840464 71.79094 
L 97.979253 64.057717 
L 100.048647 60.219873 
L 102.118042 56.671639 
L 104.187436 53.378784 
L 106.256831 50.311192 
L 108.326225 47.495194 
L 110.39562 44.940183 
L 112.465015 42.649315 
L 116.603804 38.794633 
L 118.673198 37.485944 
L 120.742593 36.407239 
L 124.881382 34.61722 
L 129.020171 34.339994 
L 131.089565 34.42403 
L 133.15896 34.893941 
L 135.228355 35.044015 
L 137.297749 35.53942 
L 139.367144 36.313999 
L 141.436538 36.832639 
L 143.505933 37.504326 
L 145.575327 38.409919 
L 147.644722 38.8799 
L 151.783511 40.170008 
L 153.852905 40.673214 
L 157.991695 41.529999 
L 164.199878 43.532178 
L 166.269273 44.332469 
L 168.338667 45.345027 
L 182.824429 53.49694 
L 184.893824 54.838227 
L 189.032613 58.229412 
L 195.240796 64.194977 
L 205.587769 74.864036 
L 211.795953 80.422764 
L 213.865347 82.129616 
L 220.073531 86.321308 
L 226.281715 90.141123 
L 232.489898 94.596225 
L 234.559293 95.79164 
L 236.628687 97.282568 
L 242.836871 100.498924 
L 251.114449 103.728604 
L 253.183844 104.293891 
L 255.253238 105.204923 
L 257.322633 105.872284 
L 265.600211 109.151591 
L 267.669605 109.77822 
L 269.739 110.227644 
L 271.808395 110.453892 
L 273.877789 110.199102 
L 275.947184 109.622414 
L 278.016578 108.472047 
L 280.085973 106.831064 
L 282.155367 104.521363 
L 284.224762 101.730769 
L 286.294156 98.50722 
L 290.432945 90.944887 
L 298.710524 72.378788 
L 300.779918 67.751805 
L 302.849313 63.5891 
L 306.988102 56.136732 
L 309.057496 52.559046 
L 313.196285 46.730647 
L 315.26568 44.059796 
L 317.335075 41.657239 
L 319.404469 39.478838 
L 323.543258 36.068537 
L 325.612653 34.822519 
L 329.751442 33.161747 
L 333.890231 32.306929 
L 335.959625 32.544737 
L 340.098415 33.361421 
L 342.167809 34.209591 
L 344.237204 34.925435 
L 352.514782 38.727838 
L 354.584176 39.459409 
L 358.722965 40.470291 
L 362.861755 41.044469 
L 364.931149 41.21716 
L 369.069938 42.30196 
L 371.139333 42.93117 
L 373.208727 43.733606 
L 375.278122 44.717697 
L 381.486305 48.319296 
L 383.5557 49.716043 
L 387.694489 52.24478 
L 389.763884 53.61694 
L 395.972067 58.980108 
L 400.110856 63.116495 
L 404.249645 67.15684 
L 406.31904 69.491191 
L 410.457829 73.703233 
L 416.666013 79.61885 
L 420.804802 82.979802 
L 422.874196 84.66135 
L 439.429353 96.840215 
L 441.498747 98.280009 
L 443.568142 99.50599 
L 445.637536 100.88113 
L 447.706931 101.941912 
L 449.776325 102.446469 
L 451.84572 103.322619 
L 458.053904 105.061853 
L 460.123298 105.497201 
L 466.331482 107.30988 
L 472.539665 109.563451 
L 476.678455 110.591813 
L 476.678455 110.591813 
" style="fill:none;stroke:#e06666;stroke-linecap:square;stroke-width:3;"/>
   </g>
   <g id="line2d_28">
    <path clip-path="url(#pf52a304f5f)" d="M 62.799545 108.79194 
L 64.86894 114.544722 
L 66.938335 106.980595 
L 69.007729 110.072592 
L 71.077124 117.405675 
L 73.146518 136.717518 
L 75.215913 116.216943 
L 77.285307 113.958848 
L 79.354702 104.272288 
L 81.424096 92.774203 
L 83.493491 91.598862 
L 85.562885 89.374655 
L 87.63228 84.425764 
L 89.701675 78.378653 
L 91.771069 68.703022 
L 93.840464 63.242493 
L 95.909858 65.924702 
L 97.979253 67.592805 
L 102.118042 65.399646 
L 104.187436 60.87469 
L 106.256831 55.006341 
L 108.326225 50.534783 
L 110.39562 47.507717 
L 112.465015 45.28737 
L 114.534409 44.198616 
L 116.603804 45.452977 
L 118.673198 41.779473 
L 120.742593 42.39361 
L 122.811987 40.701891 
L 124.881382 37.855847 
L 126.950776 37.063595 
L 129.020171 42.990337 
L 131.089565 41.408184 
L 133.15896 35.761822 
L 137.297749 40.183281 
L 139.367144 37.405742 
L 141.436538 35.476256 
L 143.505933 34.262224 
L 145.575327 39.928921 
L 147.644722 39.40318 
L 149.714116 46.092282 
L 151.783511 41.032113 
L 153.852905 46.385228 
L 155.9223 45.612548 
L 157.991695 49.963469 
L 160.061089 46.118811 
L 162.130484 45.766952 
L 164.199878 49.234291 
L 166.269273 49.689507 
L 168.338667 50.327919 
L 170.408062 38.712234 
L 172.477456 42.85664 
L 174.546851 53.885216 
L 176.616245 58.537867 
L 178.68564 60.321768 
L 180.755035 59.441701 
L 182.824429 63.246425 
L 184.893824 66.368801 
L 186.963218 68.626443 
L 191.102007 71.113151 
L 193.171402 68.956587 
L 195.240796 71.456198 
L 197.310191 71.076921 
L 199.379585 71.143772 
L 203.518375 75.339917 
L 205.587769 76.156692 
L 209.726558 77.505006 
L 211.795953 75.924337 
L 213.865347 78.381228 
L 215.934742 77.820201 
L 218.004136 82.867648 
L 220.073531 83.312462 
L 222.142925 85.751058 
L 224.21232 88.860383 
L 226.281715 91.294375 
L 228.351109 90.800463 
L 230.420504 94.738861 
L 232.489898 95.704062 
L 234.559293 98.348431 
L 236.628687 98.687249 
L 238.698082 99.710696 
L 240.767476 97.981486 
L 244.906265 101.518798 
L 246.97566 100.109542 
L 249.045055 100.395929 
L 251.114449 99.697873 
L 253.183844 104.834404 
L 255.253238 99.992294 
L 257.322633 100.443602 
L 259.392027 99.479203 
L 261.461422 99.873555 
L 265.600211 106.994953 
L 267.669605 108.186484 
L 269.739 108.84879 
L 271.808395 108.863028 
L 273.877789 113.073993 
L 275.947184 116.783796 
L 280.085973 120.039953 
L 282.155367 107.414906 
L 284.224762 95.640388 
L 286.294156 90.984947 
L 288.363551 92.822668 
L 290.432945 89.212122 
L 292.50234 83.384274 
L 294.571735 80.320918 
L 296.641129 69.997326 
L 298.710524 67.891932 
L 300.779918 67.515273 
L 302.849313 66.993025 
L 304.918707 69.034595 
L 306.988102 67.943394 
L 309.057496 60.868788 
L 311.126891 58.868373 
L 313.196285 51.909965 
L 315.26568 47.710461 
L 317.335075 48.09855 
L 319.404469 42.384995 
L 321.473864 41.14464 
L 323.543258 39.655808 
L 325.612653 40.768432 
L 327.682047 40.070538 
L 329.751442 38.972016 
L 331.820836 38.095034 
L 333.890231 40.035271 
L 335.959625 40.39638 
L 338.02902 45.361929 
L 340.098415 43.555886 
L 342.167809 38.550334 
L 344.237204 43.290958 
L 346.306598 40.740259 
L 348.375993 37.72297 
L 350.445387 40.068591 
L 352.514782 38.364921 
L 354.584176 41.27909 
L 356.653571 44.770589 
L 358.722965 45.895792 
L 360.79236 42.130939 
L 362.861755 44.095261 
L 364.931149 46.431888 
L 369.069938 47.344379 
L 371.139333 48.13935 
L 373.208727 50.329931 
L 375.278122 50.779619 
L 377.347516 47.977264 
L 379.416911 45.461022 
L 383.5557 56.925269 
L 385.625095 57.766894 
L 387.694489 57.285229 
L 389.763884 58.512315 
L 391.833278 59.8974 
L 393.902673 59.281466 
L 395.972067 59.96063 
L 398.041462 61.960198 
L 400.110856 61.298693 
L 402.180251 63.302163 
L 404.249645 66.539398 
L 406.31904 66.263165 
L 408.388435 67.152691 
L 412.527224 72.971155 
L 416.666013 74.10704 
L 418.735407 76.918384 
L 420.804802 81.369308 
L 422.874196 80.742878 
L 424.943591 84.325118 
L 427.012985 86.248997 
L 431.151775 92.552568 
L 433.221169 95.28945 
L 435.290564 92.885939 
L 437.359958 96.287051 
L 439.429353 94.186779 
L 441.498747 97.118283 
L 443.568142 101.895413 
L 445.637536 100.3617 
L 447.706931 102.209922 
L 449.776325 102.457006 
L 451.84572 101.646116 
L 453.915115 105.084231 
L 455.984509 101.513959 
L 458.053904 108.320987 
L 460.123298 104.639856 
L 462.192693 98.598748 
L 464.262087 100.265117 
L 466.331482 108.091251 
L 468.400876 105.846028 
L 472.539665 117.934078 
L 474.60906 110.889204 
L 476.678455 112.966366 
L 476.678455 112.966366 
" style="fill:none;stroke:#4a86e8;stroke-dasharray:4.44,1.92;stroke-dashoffset:0;stroke-width:1.2;"/>
   </g>
   <g id="patch_3">
    <path d="M 42.1056 141.938047 
L 42.1056 27.0864 
" style="fill:none;stroke:#000000;stroke-linecap:square;stroke-linejoin:miter;stroke-width:0.8;"/>
   </g>
   <g id="patch_4">
    <path d="M 497.3724 141.938047 
L 497.3724 27.0864 
" style="fill:none;stroke:#000000;stroke-linecap:square;stroke-linejoin:miter;stroke-width:0.8;"/>
   </g>
   <g id="patch_5">
    <path d="M 42.1056 141.938047 
L 497.3724 141.938047 
" style="fill:none;stroke:#000000;stroke-linecap:square;stroke-linejoin:miter;stroke-width:0.8;"/>
   </g>
   <g id="patch_6">
    <path d="M 42.1056 27.0864 
L 497.3724 27.0864 
" style="fill:none;stroke:#000000;stroke-linecap:square;stroke-linejoin:miter;stroke-width:0.8;"/>
   </g>
   <g id="legend_1">
    <g id="patch_7">
     <path d="M 395.19115 64.44265 
L 490.3724 64.44265 
Q 492.3724 64.44265 492.3724 62.44265 
L 492.3724 34.0864 
Q 492.3724 32.0864 490.3724 32.0864 
L 395.19115 32.0864 
Q 393.19115 32.0864 393.19115 34.0864 
L 393.19115 62.44265 
Q 393.19115 64.44265 395.19115 64.44265 
z
" style="fill:#ffffff;opacity:0.8;stroke:#cccccc;stroke-linejoin:miter;"/>
    </g>
    <g id="line2d_29">
     <path d="M 397.19115 40.184837 
L 417.19115 40.184837 
" style="fill:none;stroke:#e06666;stroke-linecap:square;stroke-width:3;"/>
    </g>
    <g id="line2d_30"/>
    <g id="text_14">
     <!-- ground truth -->
     <g transform="translate(425.19115 43.684837)scale(0.1 -0.1)">
      <defs>
       <path d="M 45.40625 27.984375 
Q 45.40625 37.75 41.375 43.109375 
Q 37.359375 48.484375 30.078125 48.484375 
Q 22.859375 48.484375 18.828125 43.109375 
Q 14.796875 37.75 14.796875 27.984375 
Q 14.796875 18.265625 18.828125 12.890625 
Q 22.859375 7.515625 30.078125 7.515625 
Q 37.359375 7.515625 41.375 12.890625 
Q 45.40625 18.265625 45.40625 27.984375 
z
M 54.390625 6.78125 
Q 54.390625 -7.171875 48.1875 -13.984375 
Q 42 -20.796875 29.203125 -20.796875 
Q 24.46875 -20.796875 20.265625 -20.09375 
Q 16.0625 -19.390625 12.109375 -17.921875 
L 12.109375 -9.1875 
Q 16.0625 -11.328125 19.921875 -12.34375 
Q 23.78125 -13.375 27.78125 -13.375 
Q 36.625 -13.375 41.015625 -8.765625 
Q 45.40625 -4.15625 45.40625 5.171875 
L 45.40625 9.625 
Q 42.625 4.78125 38.28125 2.390625 
Q 33.9375 0 27.875 0 
Q 17.828125 0 11.671875 7.65625 
Q 5.515625 15.328125 5.515625 27.984375 
Q 5.515625 40.671875 11.671875 48.328125 
Q 17.828125 56 27.875 56 
Q 33.9375 56 38.28125 53.609375 
Q 42.625 51.21875 45.40625 46.390625 
L 45.40625 54.6875 
L 54.390625 54.6875 
z
" id="DejaVuSans-103"/>
       <path d="M 41.109375 46.296875 
Q 39.59375 47.171875 37.8125 47.578125 
Q 36.03125 48 33.890625 48 
Q 26.265625 48 22.1875 43.046875 
Q 18.109375 38.09375 18.109375 28.8125 
L 18.109375 0 
L 9.078125 0 
L 9.078125 54.6875 
L 18.109375 54.6875 
L 18.109375 46.1875 
Q 20.953125 51.171875 25.484375 53.578125 
Q 30.03125 56 36.53125 56 
Q 37.453125 56 38.578125 55.875 
Q 39.703125 55.765625 41.0625 55.515625 
z
" id="DejaVuSans-114"/>
       <path d="M 30.609375 48.390625 
Q 23.390625 48.390625 19.1875 42.75 
Q 14.984375 37.109375 14.984375 27.296875 
Q 14.984375 17.484375 19.15625 11.84375 
Q 23.34375 6.203125 30.609375 6.203125 
Q 37.796875 6.203125 41.984375 11.859375 
Q 46.1875 17.53125 46.1875 27.296875 
Q 46.1875 37.015625 41.984375 42.703125 
Q 37.796875 48.390625 30.609375 48.390625 
z
M 30.609375 56 
Q 42.328125 56 49.015625 48.375 
Q 55.71875 40.765625 55.71875 27.296875 
Q 55.71875 13.875 49.015625 6.21875 
Q 42.328125 -1.421875 30.609375 -1.421875 
Q 18.84375 -1.421875 12.171875 6.21875 
Q 5.515625 13.875 5.515625 27.296875 
Q 5.515625 40.765625 12.171875 48.375 
Q 18.84375 56 30.609375 56 
z
" id="DejaVuSans-111"/>
       <path d="M 8.5 21.578125 
L 8.5 54.6875 
L 17.484375 54.6875 
L 17.484375 21.921875 
Q 17.484375 14.15625 20.5 10.265625 
Q 23.53125 6.390625 29.59375 6.390625 
Q 36.859375 6.390625 41.078125 11.03125 
Q 45.3125 15.671875 45.3125 23.6875 
L 45.3125 54.6875 
L 54.296875 54.6875 
L 54.296875 0 
L 45.3125 0 
L 45.3125 8.40625 
Q 42.046875 3.421875 37.71875 1 
Q 33.40625 -1.421875 27.6875 -1.421875 
Q 18.265625 -1.421875 13.375 4.4375 
Q 8.5 10.296875 8.5 21.578125 
z
M 31.109375 56 
z
" id="DejaVuSans-117"/>
       <path d="M 54.890625 33.015625 
L 54.890625 0 
L 45.90625 0 
L 45.90625 32.71875 
Q 45.90625 40.484375 42.875 44.328125 
Q 39.84375 48.1875 33.796875 48.1875 
Q 26.515625 48.1875 22.3125 43.546875 
Q 18.109375 38.921875 18.109375 30.90625 
L 18.109375 0 
L 9.078125 0 
L 9.078125 54.6875 
L 18.109375 54.6875 
L 18.109375 46.1875 
Q 21.34375 51.125 25.703125 53.5625 
Q 30.078125 56 35.796875 56 
Q 45.21875 56 50.046875 50.171875 
Q 54.890625 44.34375 54.890625 33.015625 
z
" id="DejaVuSans-110"/>
       <path d="M 45.40625 46.390625 
L 45.40625 75.984375 
L 54.390625 75.984375 
L 54.390625 0 
L 45.40625 0 
L 45.40625 8.203125 
Q 42.578125 3.328125 38.25 0.953125 
Q 33.9375 -1.421875 27.875 -1.421875 
Q 17.96875 -1.421875 11.734375 6.484375 
Q 5.515625 14.40625 5.515625 27.296875 
Q 5.515625 40.1875 11.734375 48.09375 
Q 17.96875 56 27.875 56 
Q 33.9375 56 38.25 53.625 
Q 42.578125 51.265625 45.40625 46.390625 
z
M 14.796875 27.296875 
Q 14.796875 17.390625 18.875 11.75 
Q 22.953125 6.109375 30.078125 6.109375 
Q 37.203125 6.109375 41.296875 11.75 
Q 45.40625 17.390625 45.40625 27.296875 
Q 45.40625 37.203125 41.296875 42.84375 
Q 37.203125 48.484375 30.078125 48.484375 
Q 22.953125 48.484375 18.875 42.84375 
Q 14.796875 37.203125 14.796875 27.296875 
z
" id="DejaVuSans-100"/>
       <path id="DejaVuSans-32"/>
       <path d="M 18.3125 70.21875 
L 18.3125 54.6875 
L 36.8125 54.6875 
L 36.8125 47.703125 
L 18.3125 47.703125 
L 18.3125 18.015625 
Q 18.3125 11.328125 20.140625 9.421875 
Q 21.96875 7.515625 27.59375 7.515625 
L 36.8125 7.515625 
L 36.8125 0 
L 27.59375 0 
Q 17.1875 0 13.234375 3.875 
Q 9.28125 7.765625 9.28125 18.015625 
L 9.28125 47.703125 
L 2.6875 47.703125 
L 2.6875 54.6875 
L 9.28125 54.6875 
L 9.28125 70.21875 
z
" id="DejaVuSans-116"/>
       <path d="M 54.890625 33.015625 
L 54.890625 0 
L 45.90625 0 
L 45.90625 32.71875 
Q 45.90625 40.484375 42.875 44.328125 
Q 39.84375 48.1875 33.796875 48.1875 
Q 26.515625 48.1875 22.3125 43.546875 
Q 18.109375 38.921875 18.109375 30.90625 
L 18.109375 0 
L 9.078125 0 
L 9.078125 75.984375 
L 18.109375 75.984375 
L 18.109375 46.1875 
Q 21.34375 51.125 25.703125 53.5625 
Q 30.078125 56 35.796875 56 
Q 45.21875 56 50.046875 50.171875 
Q 54.890625 44.34375 54.890625 33.015625 
z
" id="DejaVuSans-104"/>
      </defs>
      <use xlink:href="#DejaVuSans-103"/>
      <use x="63.476562" xlink:href="#DejaVuSans-114"/>
      <use x="102.339844" xlink:href="#DejaVuSans-111"/>
      <use x="163.521484" xlink:href="#DejaVuSans-117"/>
      <use x="226.900391" xlink:href="#DejaVuSans-110"/>
      <use x="290.279297" xlink:href="#DejaVuSans-100"/>
      <use x="353.755859" xlink:href="#DejaVuSans-32"/>
      <use x="385.542969" xlink:href="#DejaVuSans-116"/>
      <use x="424.751953" xlink:href="#DejaVuSans-114"/>
      <use x="465.865234" xlink:href="#DejaVuSans-117"/>
      <use x="529.244141" xlink:href="#DejaVuSans-116"/>
      <use x="568.453125" xlink:href="#DejaVuSans-104"/>
     </g>
    </g>
    <g id="line2d_31">
     <path d="M 397.19115 54.862962 
L 417.19115 54.862962 
" style="fill:none;stroke:#4a86e8;stroke-dasharray:4.44,1.92;stroke-dashoffset:0;stroke-width:1.2;"/>
    </g>
    <g id="line2d_32"/>
    <g id="text_15">
     <!-- prediction -->
     <g transform="translate(425.19115 58.362962)scale(0.1 -0.1)">
      <defs>
       <path d="M 18.109375 8.203125 
L 18.109375 -20.796875 
L 9.078125 -20.796875 
L 9.078125 54.6875 
L 18.109375 54.6875 
L 18.109375 46.390625 
Q 20.953125 51.265625 25.265625 53.625 
Q 29.59375 56 35.59375 56 
Q 45.5625 56 51.78125 48.09375 
Q 58.015625 40.1875 58.015625 27.296875 
Q 58.015625 14.40625 51.78125 6.484375 
Q 45.5625 -1.421875 35.59375 -1.421875 
Q 29.59375 -1.421875 25.265625 0.953125 
Q 20.953125 3.328125 18.109375 8.203125 
z
M 48.6875 27.296875 
Q 48.6875 37.203125 44.609375 42.84375 
Q 40.53125 48.484375 33.40625 48.484375 
Q 26.265625 48.484375 22.1875 42.84375 
Q 18.109375 37.203125 18.109375 27.296875 
Q 18.109375 17.390625 22.1875 11.75 
Q 26.265625 6.109375 33.40625 6.109375 
Q 40.53125 6.109375 44.609375 11.75 
Q 48.6875 17.390625 48.6875 27.296875 
z
" id="DejaVuSans-112"/>
       <path d="M 56.203125 29.59375 
L 56.203125 25.203125 
L 14.890625 25.203125 
Q 15.484375 15.921875 20.484375 11.0625 
Q 25.484375 6.203125 34.421875 6.203125 
Q 39.59375 6.203125 44.453125 7.46875 
Q 49.3125 8.734375 54.109375 11.28125 
L 54.109375 2.78125 
Q 49.265625 0.734375 44.1875 -0.34375 
Q 39.109375 -1.421875 33.890625 -1.421875 
Q 20.796875 -1.421875 13.15625 6.1875 
Q 5.515625 13.8125 5.515625 26.8125 
Q 5.515625 40.234375 12.765625 48.109375 
Q 20.015625 56 32.328125 56 
Q 43.359375 56 49.78125 48.890625 
Q 56.203125 41.796875 56.203125 29.59375 
z
M 47.21875 32.234375 
Q 47.125 39.59375 43.09375 43.984375 
Q 39.0625 48.390625 32.421875 48.390625 
Q 24.90625 48.390625 20.390625 44.140625 
Q 15.875 39.890625 15.1875 32.171875 
z
" id="DejaVuSans-101"/>
       <path d="M 9.421875 54.6875 
L 18.40625 54.6875 
L 18.40625 0 
L 9.421875 0 
z
M 9.421875 75.984375 
L 18.40625 75.984375 
L 18.40625 64.59375 
L 9.421875 64.59375 
z
" id="DejaVuSans-105"/>
       <path d="M 48.78125 52.59375 
L 48.78125 44.1875 
Q 44.96875 46.296875 41.140625 47.34375 
Q 37.3125 48.390625 33.40625 48.390625 
Q 24.65625 48.390625 19.8125 42.84375 
Q 14.984375 37.3125 14.984375 27.296875 
Q 14.984375 17.28125 19.8125 11.734375 
Q 24.65625 6.203125 33.40625 6.203125 
Q 37.3125 6.203125 41.140625 7.25 
Q 44.96875 8.296875 48.78125 10.40625 
L 48.78125 2.09375 
Q 45.015625 0.34375 40.984375 -0.53125 
Q 36.96875 -1.421875 32.421875 -1.421875 
Q 20.0625 -1.421875 12.78125 6.34375 
Q 5.515625 14.109375 5.515625 27.296875 
Q 5.515625 40.671875 12.859375 48.328125 
Q 20.21875 56 33.015625 56 
Q 37.15625 56 41.109375 55.140625 
Q 45.0625 54.296875 48.78125 52.59375 
z
" id="DejaVuSans-99"/>
      </defs>
      <use xlink:href="#DejaVuSans-112"/>
      <use x="63.476562" xlink:href="#DejaVuSans-114"/>
      <use x="102.339844" xlink:href="#DejaVuSans-101"/>
      <use x="163.863281" xlink:href="#DejaVuSans-100"/>
      <use x="227.339844" xlink:href="#DejaVuSans-105"/>
      <use x="255.123047" xlink:href="#DejaVuSans-99"/>
      <use x="310.103516" xlink:href="#DejaVuSans-116"/>
      <use x="349.3125" xlink:href="#DejaVuSans-105"/>
      <use x="377.095703" xlink:href="#DejaVuSans-111"/>
      <use x="438.277344" xlink:href="#DejaVuSans-110"/>
     </g>
    </g>
   </g>
  </g>
  <g id="axes_2">
   <g id="patch_8">
    <path d="M 42.1056 279.760024 
L 497.3724 279.760024 
L 497.3724 164.908376 
L 42.1056 164.908376 
z
" style="fill:#ffffff;"/>
   </g>
   <g id="matplotlib.axis_3">
    <g id="xtick_10">
     <g id="line2d_33">
      <path clip-path="url(#p71bfedf5ce)" d="M 60.730151 279.760024 
L 60.730151 164.908376 
" style="fill:none;stroke:#b0b0b0;stroke-linecap:square;stroke-width:0.8;"/>
     </g>
     <g id="line2d_34">
      <g>
       <use style="stroke:#000000;stroke-width:0.8;" x="60.730151" xlink:href="#m2d3516f695" y="279.760024"/>
      </g>
     </g>
     <g id="text_16">
      <!-- 0 -->
      <g transform="translate(57.548901 294.358461)scale(0.1 -0.1)">
       <use xlink:href="#DejaVuSans-48"/>
      </g>
     </g>
    </g>
    <g id="xtick_11">
     <g id="line2d_35">
      <path clip-path="url(#p71bfedf5ce)" d="M 112.465015 279.760024 
L 112.465015 164.908376 
" style="fill:none;stroke:#b0b0b0;stroke-linecap:square;stroke-width:0.8;"/>
     </g>
     <g id="line2d_36">
      <g>
       <use style="stroke:#000000;stroke-width:0.8;" x="112.465015" xlink:href="#m2d3516f695" y="279.760024"/>
      </g>
     </g>
     <g id="text_17">
      <!-- 25 -->
      <g transform="translate(106.102515 294.358461)scale(0.1 -0.1)">
       <use xlink:href="#DejaVuSans-50"/>
       <use x="63.623047" xlink:href="#DejaVuSans-53"/>
      </g>
     </g>
    </g>
    <g id="xtick_12">
     <g id="line2d_37">
      <path clip-path="url(#p71bfedf5ce)" d="M 164.199878 279.760024 
L 164.199878 164.908376 
" style="fill:none;stroke:#b0b0b0;stroke-linecap:square;stroke-width:0.8;"/>
     </g>
     <g id="line2d_38">
      <g>
       <use style="stroke:#000000;stroke-width:0.8;" x="164.199878" xlink:href="#m2d3516f695" y="279.760024"/>
      </g>
     </g>
     <g id="text_18">
      <!-- 50 -->
      <g transform="translate(157.837378 294.358461)scale(0.1 -0.1)">
       <use xlink:href="#DejaVuSans-53"/>
       <use x="63.623047" xlink:href="#DejaVuSans-48"/>
      </g>
     </g>
    </g>
    <g id="xtick_13">
     <g id="line2d_39">
      <path clip-path="url(#p71bfedf5ce)" d="M 215.934742 279.760024 
L 215.934742 164.908376 
" style="fill:none;stroke:#b0b0b0;stroke-linecap:square;stroke-width:0.8;"/>
     </g>
     <g id="line2d_40">
      <g>
       <use style="stroke:#000000;stroke-width:0.8;" x="215.934742" xlink:href="#m2d3516f695" y="279.760024"/>
      </g>
     </g>
     <g id="text_19">
      <!-- 75 -->
      <g transform="translate(209.572242 294.358461)scale(0.1 -0.1)">
       <use xlink:href="#DejaVuSans-55"/>
       <use x="63.623047" xlink:href="#DejaVuSans-53"/>
      </g>
     </g>
    </g>
    <g id="xtick_14">
     <g id="line2d_41">
      <path clip-path="url(#p71bfedf5ce)" d="M 267.669605 279.760024 
L 267.669605 164.908376 
" style="fill:none;stroke:#b0b0b0;stroke-linecap:square;stroke-width:0.8;"/>
     </g>
     <g id="line2d_42">
      <g>
       <use style="stroke:#000000;stroke-width:0.8;" x="267.669605" xlink:href="#m2d3516f695" y="279.760024"/>
      </g>
     </g>
     <g id="text_20">
      <!-- 100 -->
      <g transform="translate(258.125855 294.358461)scale(0.1 -0.1)">
       <use xlink:href="#DejaVuSans-49"/>
       <use x="63.623047" xlink:href="#DejaVuSans-48"/>
       <use x="127.246094" xlink:href="#DejaVuSans-48"/>
      </g>
     </g>
    </g>
    <g id="xtick_15">
     <g id="line2d_43">
      <path clip-path="url(#p71bfedf5ce)" d="M 319.404469 279.760024 
L 319.404469 164.908376 
" style="fill:none;stroke:#b0b0b0;stroke-linecap:square;stroke-width:0.8;"/>
     </g>
     <g id="line2d_44">
      <g>
       <use style="stroke:#000000;stroke-width:0.8;" x="319.404469" xlink:href="#m2d3516f695" y="279.760024"/>
      </g>
     </g>
     <g id="text_21">
      <!-- 125 -->
      <g transform="translate(309.860719 294.358461)scale(0.1 -0.1)">
       <use xlink:href="#DejaVuSans-49"/>
       <use x="63.623047" xlink:href="#DejaVuSans-50"/>
       <use x="127.246094" xlink:href="#DejaVuSans-53"/>
      </g>
     </g>
    </g>
    <g id="xtick_16">
     <g id="line2d_45">
      <path clip-path="url(#p71bfedf5ce)" d="M 371.139333 279.760024 
L 371.139333 164.908376 
" style="fill:none;stroke:#b0b0b0;stroke-linecap:square;stroke-width:0.8;"/>
     </g>
     <g id="line2d_46">
      <g>
       <use style="stroke:#000000;stroke-width:0.8;" x="371.139333" xlink:href="#m2d3516f695" y="279.760024"/>
      </g>
     </g>
     <g id="text_22">
      <!-- 150 -->
      <g transform="translate(361.595583 294.358461)scale(0.1 -0.1)">
       <use xlink:href="#DejaVuSans-49"/>
       <use x="63.623047" xlink:href="#DejaVuSans-53"/>
       <use x="127.246094" xlink:href="#DejaVuSans-48"/>
      </g>
     </g>
    </g>
    <g id="xtick_17">
     <g id="line2d_47">
      <path clip-path="url(#p71bfedf5ce)" d="M 422.874196 279.760024 
L 422.874196 164.908376 
" style="fill:none;stroke:#b0b0b0;stroke-linecap:square;stroke-width:0.8;"/>
     </g>
     <g id="line2d_48">
      <g>
       <use style="stroke:#000000;stroke-width:0.8;" x="422.874196" xlink:href="#m2d3516f695" y="279.760024"/>
      </g>
     </g>
     <g id="text_23">
      <!-- 175 -->
      <g transform="translate(413.330446 294.358461)scale(0.1 -0.1)">
       <use xlink:href="#DejaVuSans-49"/>
       <use x="63.623047" xlink:href="#DejaVuSans-55"/>
       <use x="127.246094" xlink:href="#DejaVuSans-53"/>
      </g>
     </g>
    </g>
    <g id="xtick_18">
     <g id="line2d_49">
      <path clip-path="url(#p71bfedf5ce)" d="M 474.60906 279.760024 
L 474.60906 164.908376 
" style="fill:none;stroke:#b0b0b0;stroke-linecap:square;stroke-width:0.8;"/>
     </g>
     <g id="line2d_50">
      <g>
       <use style="stroke:#000000;stroke-width:0.8;" x="474.60906" xlink:href="#m2d3516f695" y="279.760024"/>
      </g>
     </g>
     <g id="text_24">
      <!-- 200 -->
      <g transform="translate(465.06531 294.358461)scale(0.1 -0.1)">
       <use xlink:href="#DejaVuSans-50"/>
       <use x="63.623047" xlink:href="#DejaVuSans-48"/>
       <use x="127.246094" xlink:href="#DejaVuSans-48"/>
      </g>
     </g>
    </g>
   </g>
   <g id="matplotlib.axis_4">
    <g id="ytick_5">
     <g id="line2d_51">
      <path clip-path="url(#p71bfedf5ce)" d="M 42.1056 256.577711 
L 497.3724 256.577711 
" style="fill:none;stroke:#b0b0b0;stroke-linecap:square;stroke-width:0.8;"/>
     </g>
     <g id="line2d_52">
      <g>
       <use style="stroke:#000000;stroke-width:0.8;" x="42.1056" xlink:href="#m1a8f1c00c8" y="256.577711"/>
      </g>
     </g>
     <g id="text_25">
      <!-- −0.2 -->
      <g transform="translate(10.822787 260.37693)scale(0.1 -0.1)">
       <use xlink:href="#DejaVuSans-8722"/>
       <use x="83.789062" xlink:href="#DejaVuSans-48"/>
       <use x="147.412109" xlink:href="#DejaVuSans-46"/>
       <use x="179.199219" xlink:href="#DejaVuSans-50"/>
      </g>
     </g>
    </g>
    <g id="ytick_6">
     <g id="line2d_53">
      <path clip-path="url(#p71bfedf5ce)" d="M 42.1056 232.634195 
L 497.3724 232.634195 
" style="fill:none;stroke:#b0b0b0;stroke-linecap:square;stroke-width:0.8;"/>
     </g>
     <g id="line2d_54">
      <g>
       <use style="stroke:#000000;stroke-width:0.8;" x="42.1056" xlink:href="#m1a8f1c00c8" y="232.634195"/>
      </g>
     </g>
     <g id="text_26">
      <!-- 0.0 -->
      <g transform="translate(19.202475 236.433413)scale(0.1 -0.1)">
       <use xlink:href="#DejaVuSans-48"/>
       <use x="63.623047" xlink:href="#DejaVuSans-46"/>
       <use x="95.410156" xlink:href="#DejaVuSans-48"/>
      </g>
     </g>
    </g>
    <g id="ytick_7">
     <g id="line2d_55">
      <path clip-path="url(#p71bfedf5ce)" d="M 42.1056 208.690678 
L 497.3724 208.690678 
" style="fill:none;stroke:#b0b0b0;stroke-linecap:square;stroke-width:0.8;"/>
     </g>
     <g id="line2d_56">
      <g>
       <use style="stroke:#000000;stroke-width:0.8;" x="42.1056" xlink:href="#m1a8f1c00c8" y="208.690678"/>
      </g>
     </g>
     <g id="text_27">
      <!-- 0.2 -->
      <g transform="translate(19.202475 212.489897)scale(0.1 -0.1)">
       <use xlink:href="#DejaVuSans-48"/>
       <use x="63.623047" xlink:href="#DejaVuSans-46"/>
       <use x="95.410156" xlink:href="#DejaVuSans-50"/>
      </g>
     </g>
    </g>
    <g id="ytick_8">
     <g id="line2d_57">
      <path clip-path="url(#p71bfedf5ce)" d="M 42.1056 184.747162 
L 497.3724 184.747162 
" style="fill:none;stroke:#b0b0b0;stroke-linecap:square;stroke-width:0.8;"/>
     </g>
     <g id="line2d_58">
      <g>
       <use style="stroke:#000000;stroke-width:0.8;" x="42.1056" xlink:href="#m1a8f1c00c8" y="184.747162"/>
      </g>
     </g>
     <g id="text_28">
      <!-- 0.4 -->
      <g transform="translate(19.202475 188.54638)scale(0.1 -0.1)">
       <use xlink:href="#DejaVuSans-48"/>
       <use x="63.623047" xlink:href="#DejaVuSans-46"/>
       <use x="95.410156" xlink:href="#DejaVuSans-52"/>
      </g>
     </g>
    </g>
   </g>
   <g id="line2d_59">
    <path clip-path="url(#p71bfedf5ce)" d="M 62.799545 186.308238 
L 64.86894 185.421854 
L 66.938335 185.252564 
L 69.007729 187.752632 
L 71.077124 192.318384 
L 73.146518 201.50952 
L 75.215913 211.627405 
L 77.285307 217.957473 
L 79.354702 216.421705 
L 81.424096 213.992647 
L 83.493491 214.185432 
L 85.562885 216.859849 
L 89.701675 222.824976 
L 91.771069 223.669776 
L 95.909858 226.403034 
L 97.979253 227.109952 
L 110.39562 230.325262 
L 114.534409 230.908721 
L 118.673198 231.184952 
L 122.811987 231.111238 
L 129.020171 230.685644 
L 131.089565 230.74953 
L 133.15896 231.354209 
L 135.228355 232.691145 
L 137.297749 234.526569 
L 139.367144 236.796956 
L 143.505933 241.793516 
L 145.575327 243.011704 
L 147.644722 244.559501 
L 149.714116 246.34272 
L 151.783511 248.505363 
L 153.852905 250.027209 
L 155.9223 250.685759 
L 157.991695 250.481287 
L 160.061089 249.514858 
L 162.130484 247.620326 
L 164.199878 243.512231 
L 166.269273 241.51854 
L 168.338667 251.825165 
L 170.408062 269.608114 
L 172.477456 274.539494 
L 176.616245 243.589875 
L 178.68564 244.348862 
L 180.755035 246.652838 
L 182.824429 242.206884 
L 184.893824 246.540475 
L 186.963218 246.295352 
L 189.032613 247.09393 
L 191.102007 246.343144 
L 193.171402 243.912331 
L 195.240796 241.046267 
L 197.310191 239.218047 
L 199.379585 236.891442 
L 201.44898 235.093411 
L 203.518375 232.984117 
L 205.587769 231.512969 
L 207.657164 231.218882 
L 209.726558 231.5776 
L 211.795953 232.169312 
L 213.865347 233.205918 
L 215.934742 233.299151 
L 218.004136 231.853077 
L 220.073531 229.706232 
L 222.142925 227.318753 
L 224.21232 225.667663 
L 226.281715 225.106281 
L 228.351109 223.488969 
L 230.420504 223.080009 
L 234.559293 223.320736 
L 236.628687 223.443479 
L 238.698082 222.533212 
L 240.767476 220.803795 
L 242.836871 219.899296 
L 244.906265 217.741374 
L 246.97566 215.938836 
L 249.045055 215.136649 
L 251.114449 213.439562 
L 253.183844 211.117558 
L 255.253238 208.583848 
L 257.322633 205.608441 
L 259.392027 202.023706 
L 261.461422 198.047819 
L 263.530816 193.444783 
L 265.600211 190.533698 
L 269.739 183.794509 
L 271.808395 183.672209 
L 273.877789 183.706128 
L 275.947184 185.014309 
L 278.016578 190.910749 
L 280.085973 202.48695 
L 282.155367 212.754979 
L 284.224762 220.758566 
L 286.294156 219.242123 
L 288.363551 213.790871 
L 290.432945 210.65095 
L 292.50234 211.920952 
L 294.571735 215.618737 
L 296.641129 219.980883 
L 300.779918 224.241633 
L 302.849313 225.79317 
L 304.918707 227.005126 
L 306.988102 228.076743 
L 309.057496 229.019268 
L 311.126891 229.799775 
L 313.196285 230.39565 
L 315.26568 230.808466 
L 317.335075 231.062486 
L 321.473864 231.244709 
L 325.612653 231.171271 
L 327.682047 230.987096 
L 331.820836 230.280027 
L 335.959625 229.406878 
L 338.02902 229.221667 
L 340.098415 230.120063 
L 342.167809 231.903577 
L 344.237204 234.454066 
L 348.375993 240.662352 
L 350.445387 241.428052 
L 352.514782 242.759033 
L 354.584176 244.993233 
L 356.653571 247.713967 
L 358.722965 249.644147 
L 360.79236 250.762276 
L 362.861755 251.044491 
L 364.931149 250.473917 
L 367.000544 249.039806 
L 369.069938 246.685768 
L 371.139333 243.734119 
L 373.208727 245.522459 
L 375.278122 259.981182 
L 377.347516 273.604957 
L 379.416911 269.594313 
L 381.486305 250.393679 
L 383.5557 237.90611 
L 385.625095 243.77983 
L 387.694489 248.713801 
L 389.763884 242.487033 
L 391.833278 247.1063 
L 393.902673 246.738442 
L 395.972067 245.694247 
L 398.041462 243.36271 
L 400.110856 240.204228 
L 402.180251 238.015921 
L 404.249645 236.736595 
L 406.31904 234.199269 
L 408.388435 232.08883 
L 410.457829 230.453106 
L 412.527224 229.700155 
L 414.596618 230.275768 
L 416.666013 231.09205 
L 420.804802 229.345682 
L 422.874196 228.227497 
L 424.943591 225.785508 
L 427.012985 224.549165 
L 429.08238 223.489686 
L 431.151775 222.055378 
L 433.221169 221.206991 
L 435.290564 221.080363 
L 437.359958 221.291598 
L 439.429353 221.732765 
L 445.637536 221.584852 
L 447.706931 218.659212 
L 449.776325 214.594425 
L 451.84572 212.108858 
L 453.915115 210.74078 
L 455.984509 209.665147 
L 458.053904 208.773646 
L 460.123298 206.56195 
L 464.262087 200.002932 
L 466.331482 196.828254 
L 468.400876 193.367931 
L 470.470271 190.158148 
L 472.539665 186.7036 
L 476.678455 182.127026 
L 476.678455 182.127026 
" style="fill:none;stroke:#e06666;stroke-linecap:square;stroke-width:3;"/>
   </g>
   <g id="line2d_60">
    <path clip-path="url(#p71bfedf5ce)" d="M 62.799545 181.849582 
L 64.86894 182.343995 
L 66.938335 175.956042 
L 69.007729 170.128906 
L 71.077124 177.959728 
L 73.146518 176.180221 
L 75.215913 191.464571 
L 77.285307 202.125171 
L 79.354702 210.248713 
L 81.424096 215.189173 
L 83.493491 216.019361 
L 85.562885 213.266127 
L 87.63228 210.103653 
L 89.701675 215.810164 
L 91.771069 224.989739 
L 93.840464 224.945292 
L 95.909858 225.332928 
L 97.979253 224.863124 
L 100.048647 225.782029 
L 102.118042 224.13078 
L 104.187436 226.319415 
L 108.326225 226.856266 
L 110.39562 228.150358 
L 112.465015 230.626646 
L 114.534409 228.833715 
L 116.603804 227.540696 
L 118.673198 230.45513 
L 120.742593 229.073282 
L 122.811987 227.292168 
L 124.881382 229.403693 
L 126.950776 230.134102 
L 129.020171 228.19741 
L 131.089565 227.326205 
L 133.15896 228.33427 
L 135.228355 233.150139 
L 137.297749 232.79157 
L 139.367144 234.726625 
L 141.436538 236.96725 
L 143.505933 244.962045 
L 145.575327 248.87509 
L 147.644722 249.344678 
L 149.714116 252.958173 
L 151.783511 250.08414 
L 153.852905 256.996448 
L 155.9223 252.125232 
L 157.991695 256.594361 
L 160.061089 254.20977 
L 162.130484 252.097706 
L 166.269273 252.105448 
L 168.338667 263.621594 
L 170.408062 266.889616 
L 172.477456 266.294133 
L 174.546851 248.267176 
L 176.616245 248.155051 
L 178.68564 243.037695 
L 180.755035 247.045636 
L 182.824429 238.877462 
L 186.963218 231.480013 
L 189.032613 230.353862 
L 191.102007 227.554279 
L 193.171402 227.983609 
L 195.240796 226.874461 
L 197.310191 226.189696 
L 199.379585 228.357564 
L 201.44898 225.456092 
L 203.518375 225.561805 
L 205.587769 225.854389 
L 207.657164 227.886341 
L 209.726558 227.69816 
L 211.795953 228.164965 
L 213.865347 228.108755 
L 215.934742 229.92106 
L 218.004136 229.554527 
L 220.073531 228.354619 
L 222.142925 228.967022 
L 224.21232 226.695484 
L 226.281715 225.925406 
L 228.351109 226.650825 
L 230.420504 225.473991 
L 232.489898 223.645272 
L 234.559293 223.160683 
L 236.628687 221.814458 
L 238.698082 223.049634 
L 240.767476 221.107242 
L 242.836871 218.827275 
L 244.906265 214.626268 
L 246.97566 217.733415 
L 249.045055 213.519608 
L 251.114449 210.387366 
L 253.183844 209.403587 
L 255.253238 209.67986 
L 257.322633 202.993041 
L 259.392027 199.240762 
L 261.461422 197.441942 
L 263.530816 190.602176 
L 265.600211 187.363895 
L 267.669605 188.338856 
L 269.739 182.656433 
L 271.808395 178.168541 
L 273.877789 180.983512 
L 275.947184 170.498957 
L 278.016578 179.018177 
L 280.085973 183.368717 
L 282.155367 198.75489 
L 284.224762 208.816374 
L 286.294156 215.929577 
L 288.363551 218.776633 
L 292.50234 209.64017 
L 294.571735 210.433673 
L 296.641129 217.7821 
L 298.710524 224.438 
L 300.779918 225.341265 
L 302.849313 225.54904 
L 304.918707 224.892584 
L 306.988102 223.566592 
L 311.126891 225.294328 
L 313.196285 225.249281 
L 315.26568 227.768002 
L 317.335075 230.681662 
L 319.404469 228.600407 
L 321.473864 229.975952 
L 323.543258 228.856339 
L 325.612653 231.459705 
L 327.682047 229.265041 
L 329.751442 231.177451 
L 331.820836 228.897481 
L 333.890231 232.581716 
L 335.959625 229.214517 
L 338.02902 230.640135 
L 340.098415 230.606866 
L 342.167809 230.82674 
L 344.237204 230.851495 
L 346.306598 232.71745 
L 348.375993 238.272469 
L 350.445387 242.896132 
L 352.514782 244.008719 
L 354.584176 248.518561 
L 356.653571 250.815003 
L 358.722965 251.296297 
L 360.79236 252.864798 
L 362.861755 251.285129 
L 364.931149 256.126432 
L 367.000544 248.639208 
L 369.069938 253.146147 
L 371.139333 247.891919 
L 373.208727 249.639469 
L 375.278122 252.954025 
L 377.347516 262.148375 
L 379.416911 269.077996 
L 381.486305 266.801097 
L 383.5557 250.661695 
L 385.625095 244.809638 
L 387.694489 249.376302 
L 389.763884 248.371977 
L 391.833278 244.104216 
L 393.902673 241.648718 
L 395.972067 246.011307 
L 398.041462 244.818731 
L 400.110856 246.090394 
L 402.180251 240.555715 
L 404.249645 238.761236 
L 406.31904 240.066835 
L 408.388435 238.40927 
L 410.457829 234.879038 
L 412.527224 234.790306 
L 414.596618 232.040196 
L 416.666013 232.632008 
L 418.735407 232.418561 
L 420.804802 231.702407 
L 422.874196 233.677215 
L 424.943591 229.435877 
L 427.012985 230.1565 
L 429.08238 229.052372 
L 431.151775 226.162828 
L 433.221169 224.470245 
L 435.290564 224.587087 
L 437.359958 223.617361 
L 439.429353 224.578604 
L 441.498747 224.705124 
L 443.568142 221.218218 
L 445.637536 220.6032 
L 447.706931 221.618369 
L 449.776325 215.446765 
L 451.84572 216.70403 
L 453.915115 216.160236 
L 455.984509 211.295629 
L 458.053904 207.530876 
L 460.123298 205.976045 
L 462.192693 208.658357 
L 464.262087 201.323726 
L 468.400876 195.175165 
L 470.470271 191.306415 
L 472.539665 188.350569 
L 474.60906 179.95792 
L 476.678455 182.330712 
L 476.678455 182.330712 
" style="fill:none;stroke:#4a86e8;stroke-dasharray:4.44,1.92;stroke-dashoffset:0;stroke-width:1.2;"/>
   </g>
   <g id="patch_9">
    <path d="M 42.1056 279.760024 
L 42.1056 164.908376 
" style="fill:none;stroke:#000000;stroke-linecap:square;stroke-linejoin:miter;stroke-width:0.8;"/>
   </g>
   <g id="patch_10">
    <path d="M 497.3724 279.760024 
L 497.3724 164.908376 
" style="fill:none;stroke:#000000;stroke-linecap:square;stroke-linejoin:miter;stroke-width:0.8;"/>
   </g>
   <g id="patch_11">
    <path d="M 42.1056 279.760024 
L 497.3724 279.760024 
" style="fill:none;stroke:#000000;stroke-linecap:square;stroke-linejoin:miter;stroke-width:0.8;"/>
   </g>
   <g id="patch_12">
    <path d="M 42.1056 164.908376 
L 497.3724 164.908376 
" style="fill:none;stroke:#000000;stroke-linecap:square;stroke-linejoin:miter;stroke-width:0.8;"/>
   </g>
   <g id="legend_2">
    <g id="patch_13">
     <path d="M 395.19115 202.264626 
L 490.3724 202.264626 
Q 492.3724 202.264626 492.3724 200.264626 
L 492.3724 171.908376 
Q 492.3724 169.908376 490.3724 169.908376 
L 395.19115 169.908376 
Q 393.19115 169.908376 393.19115 171.908376 
L 393.19115 200.264626 
Q 393.19115 202.264626 395.19115 202.264626 
z
" style="fill:#ffffff;opacity:0.8;stroke:#cccccc;stroke-linejoin:miter;"/>
    </g>
    <g id="line2d_61">
     <path d="M 397.19115 178.006814 
L 417.19115 178.006814 
" style="fill:none;stroke:#e06666;stroke-linecap:square;stroke-width:3;"/>
    </g>
    <g id="line2d_62"/>
    <g id="text_29">
     <!-- ground truth -->
     <g transform="translate(425.19115 181.506814)scale(0.1 -0.1)">
      <use xlink:href="#DejaVuSans-103"/>
      <use x="63.476562" xlink:href="#DejaVuSans-114"/>
      <use x="102.339844" xlink:href="#DejaVuSans-111"/>
      <use x="163.521484" xlink:href="#DejaVuSans-117"/>
      <use x="226.900391" xlink:href="#DejaVuSans-110"/>
      <use x="290.279297" xlink:href="#DejaVuSans-100"/>
      <use x="353.755859" xlink:href="#DejaVuSans-32"/>
      <use x="385.542969" xlink:href="#DejaVuSans-116"/>
      <use x="424.751953" xlink:href="#DejaVuSans-114"/>
      <use x="465.865234" xlink:href="#DejaVuSans-117"/>
      <use x="529.244141" xlink:href="#DejaVuSans-116"/>
      <use x="568.453125" xlink:href="#DejaVuSans-104"/>
     </g>
    </g>
    <g id="line2d_63">
     <path d="M 397.19115 192.684939 
L 417.19115 192.684939 
" style="fill:none;stroke:#4a86e8;stroke-dasharray:4.44,1.92;stroke-dashoffset:0;stroke-width:1.2;"/>
    </g>
    <g id="line2d_64"/>
    <g id="text_30">
     <!-- prediction -->
     <g transform="translate(425.19115 196.184939)scale(0.1 -0.1)">
      <use xlink:href="#DejaVuSans-112"/>
      <use x="63.476562" xlink:href="#DejaVuSans-114"/>
      <use x="102.339844" xlink:href="#DejaVuSans-101"/>
      <use x="163.863281" xlink:href="#DejaVuSans-100"/>
      <use x="227.339844" xlink:href="#DejaVuSans-105"/>
      <use x="255.123047" xlink:href="#DejaVuSans-99"/>
      <use x="310.103516" xlink:href="#DejaVuSans-116"/>
      <use x="349.3125" xlink:href="#DejaVuSans-105"/>
      <use x="377.095703" xlink:href="#DejaVuSans-111"/>
      <use x="438.277344" xlink:href="#DejaVuSans-110"/>
     </g>
    </g>
   </g>
  </g>
  <g id="axes_3">
   <g id="patch_14">
    <path d="M 42.1056 417.582 
L 497.3724 417.582 
L 497.3724 302.730353 
L 42.1056 302.730353 
z
" style="fill:#ffffff;"/>
   </g>
   <g id="matplotlib.axis_5">
    <g id="xtick_19">
     <g id="line2d_65">
      <path clip-path="url(#p875efa6ee6)" d="M 60.730151 417.582 
L 60.730151 302.730353 
" style="fill:none;stroke:#b0b0b0;stroke-linecap:square;stroke-width:0.8;"/>
     </g>
     <g id="line2d_66">
      <g>
       <use style="stroke:#000000;stroke-width:0.8;" x="60.730151" xlink:href="#m2d3516f695" y="417.582"/>
      </g>
     </g>
     <g id="text_31">
      <!-- 0 -->
      <g transform="translate(57.548901 432.180438)scale(0.1 -0.1)">
       <use xlink:href="#DejaVuSans-48"/>
      </g>
     </g>
    </g>
    <g id="xtick_20">
     <g id="line2d_67">
      <path clip-path="url(#p875efa6ee6)" d="M 112.465015 417.582 
L 112.465015 302.730353 
" style="fill:none;stroke:#b0b0b0;stroke-linecap:square;stroke-width:0.8;"/>
     </g>
     <g id="line2d_68">
      <g>
       <use style="stroke:#000000;stroke-width:0.8;" x="112.465015" xlink:href="#m2d3516f695" y="417.582"/>
      </g>
     </g>
     <g id="text_32">
      <!-- 25 -->
      <g transform="translate(106.102515 432.180438)scale(0.1 -0.1)">
       <use xlink:href="#DejaVuSans-50"/>
       <use x="63.623047" xlink:href="#DejaVuSans-53"/>
      </g>
     </g>
    </g>
    <g id="xtick_21">
     <g id="line2d_69">
      <path clip-path="url(#p875efa6ee6)" d="M 164.199878 417.582 
L 164.199878 302.730353 
" style="fill:none;stroke:#b0b0b0;stroke-linecap:square;stroke-width:0.8;"/>
     </g>
     <g id="line2d_70">
      <g>
       <use style="stroke:#000000;stroke-width:0.8;" x="164.199878" xlink:href="#m2d3516f695" y="417.582"/>
      </g>
     </g>
     <g id="text_33">
      <!-- 50 -->
      <g transform="translate(157.837378 432.180438)scale(0.1 -0.1)">
       <use xlink:href="#DejaVuSans-53"/>
       <use x="63.623047" xlink:href="#DejaVuSans-48"/>
      </g>
     </g>
    </g>
    <g id="xtick_22">
     <g id="line2d_71">
      <path clip-path="url(#p875efa6ee6)" d="M 215.934742 417.582 
L 215.934742 302.730353 
" style="fill:none;stroke:#b0b0b0;stroke-linecap:square;stroke-width:0.8;"/>
     </g>
     <g id="line2d_72">
      <g>
       <use style="stroke:#000000;stroke-width:0.8;" x="215.934742" xlink:href="#m2d3516f695" y="417.582"/>
      </g>
     </g>
     <g id="text_34">
      <!-- 75 -->
      <g transform="translate(209.572242 432.180438)scale(0.1 -0.1)">
       <use xlink:href="#DejaVuSans-55"/>
       <use x="63.623047" xlink:href="#DejaVuSans-53"/>
      </g>
     </g>
    </g>
    <g id="xtick_23">
     <g id="line2d_73">
      <path clip-path="url(#p875efa6ee6)" d="M 267.669605 417.582 
L 267.669605 302.730353 
" style="fill:none;stroke:#b0b0b0;stroke-linecap:square;stroke-width:0.8;"/>
     </g>
     <g id="line2d_74">
      <g>
       <use style="stroke:#000000;stroke-width:0.8;" x="267.669605" xlink:href="#m2d3516f695" y="417.582"/>
      </g>
     </g>
     <g id="text_35">
      <!-- 100 -->
      <g transform="translate(258.125855 432.180438)scale(0.1 -0.1)">
       <use xlink:href="#DejaVuSans-49"/>
       <use x="63.623047" xlink:href="#DejaVuSans-48"/>
       <use x="127.246094" xlink:href="#DejaVuSans-48"/>
      </g>
     </g>
    </g>
    <g id="xtick_24">
     <g id="line2d_75">
      <path clip-path="url(#p875efa6ee6)" d="M 319.404469 417.582 
L 319.404469 302.730353 
" style="fill:none;stroke:#b0b0b0;stroke-linecap:square;stroke-width:0.8;"/>
     </g>
     <g id="line2d_76">
      <g>
       <use style="stroke:#000000;stroke-width:0.8;" x="319.404469" xlink:href="#m2d3516f695" y="417.582"/>
      </g>
     </g>
     <g id="text_36">
      <!-- 125 -->
      <g transform="translate(309.860719 432.180438)scale(0.1 -0.1)">
       <use xlink:href="#DejaVuSans-49"/>
       <use x="63.623047" xlink:href="#DejaVuSans-50"/>
       <use x="127.246094" xlink:href="#DejaVuSans-53"/>
      </g>
     </g>
    </g>
    <g id="xtick_25">
     <g id="line2d_77">
      <path clip-path="url(#p875efa6ee6)" d="M 371.139333 417.582 
L 371.139333 302.730353 
" style="fill:none;stroke:#b0b0b0;stroke-linecap:square;stroke-width:0.8;"/>
     </g>
     <g id="line2d_78">
      <g>
       <use style="stroke:#000000;stroke-width:0.8;" x="371.139333" xlink:href="#m2d3516f695" y="417.582"/>
      </g>
     </g>
     <g id="text_37">
      <!-- 150 -->
      <g transform="translate(361.595583 432.180438)scale(0.1 -0.1)">
       <use xlink:href="#DejaVuSans-49"/>
       <use x="63.623047" xlink:href="#DejaVuSans-53"/>
       <use x="127.246094" xlink:href="#DejaVuSans-48"/>
      </g>
     </g>
    </g>
    <g id="xtick_26">
     <g id="line2d_79">
      <path clip-path="url(#p875efa6ee6)" d="M 422.874196 417.582 
L 422.874196 302.730353 
" style="fill:none;stroke:#b0b0b0;stroke-linecap:square;stroke-width:0.8;"/>
     </g>
     <g id="line2d_80">
      <g>
       <use style="stroke:#000000;stroke-width:0.8;" x="422.874196" xlink:href="#m2d3516f695" y="417.582"/>
      </g>
     </g>
     <g id="text_38">
      <!-- 175 -->
      <g transform="translate(413.330446 432.180438)scale(0.1 -0.1)">
       <use xlink:href="#DejaVuSans-49"/>
       <use x="63.623047" xlink:href="#DejaVuSans-55"/>
       <use x="127.246094" xlink:href="#DejaVuSans-53"/>
      </g>
     </g>
    </g>
    <g id="xtick_27">
     <g id="line2d_81">
      <path clip-path="url(#p875efa6ee6)" d="M 474.60906 417.582 
L 474.60906 302.730353 
" style="fill:none;stroke:#b0b0b0;stroke-linecap:square;stroke-width:0.8;"/>
     </g>
     <g id="line2d_82">
      <g>
       <use style="stroke:#000000;stroke-width:0.8;" x="474.60906" xlink:href="#m2d3516f695" y="417.582"/>
      </g>
     </g>
     <g id="text_39">
      <!-- 200 -->
      <g transform="translate(465.06531 432.180438)scale(0.1 -0.1)">
       <use xlink:href="#DejaVuSans-50"/>
       <use x="63.623047" xlink:href="#DejaVuSans-48"/>
       <use x="127.246094" xlink:href="#DejaVuSans-48"/>
      </g>
     </g>
    </g>
   </g>
   <g id="matplotlib.axis_6">
    <g id="ytick_9">
     <g id="line2d_83">
      <path clip-path="url(#p875efa6ee6)" d="M 42.1056 413.070918 
L 497.3724 413.070918 
" style="fill:none;stroke:#b0b0b0;stroke-linecap:square;stroke-width:0.8;"/>
     </g>
     <g id="line2d_84">
      <g>
       <use style="stroke:#000000;stroke-width:0.8;" x="42.1056" xlink:href="#m1a8f1c00c8" y="413.070918"/>
      </g>
     </g>
     <g id="text_40">
      <!-- −0.1 -->
      <g transform="translate(10.822787 416.870137)scale(0.1 -0.1)">
       <use xlink:href="#DejaVuSans-8722"/>
       <use x="83.789062" xlink:href="#DejaVuSans-48"/>
       <use x="147.412109" xlink:href="#DejaVuSans-46"/>
       <use x="179.199219" xlink:href="#DejaVuSans-49"/>
      </g>
     </g>
    </g>
    <g id="ytick_10">
     <g id="line2d_85">
      <path clip-path="url(#p875efa6ee6)" d="M 42.1056 381.906755 
L 497.3724 381.906755 
" style="fill:none;stroke:#b0b0b0;stroke-linecap:square;stroke-width:0.8;"/>
     </g>
     <g id="line2d_86">
      <g>
       <use style="stroke:#000000;stroke-width:0.8;" x="42.1056" xlink:href="#m1a8f1c00c8" y="381.906755"/>
      </g>
     </g>
     <g id="text_41">
      <!-- 0.0 -->
      <g transform="translate(19.202475 385.705973)scale(0.1 -0.1)">
       <use xlink:href="#DejaVuSans-48"/>
       <use x="63.623047" xlink:href="#DejaVuSans-46"/>
       <use x="95.410156" xlink:href="#DejaVuSans-48"/>
      </g>
     </g>
    </g>
    <g id="ytick_11">
     <g id="line2d_87">
      <path clip-path="url(#p875efa6ee6)" d="M 42.1056 350.742591 
L 497.3724 350.742591 
" style="fill:none;stroke:#b0b0b0;stroke-linecap:square;stroke-width:0.8;"/>
     </g>
     <g id="line2d_88">
      <g>
       <use style="stroke:#000000;stroke-width:0.8;" x="42.1056" xlink:href="#m1a8f1c00c8" y="350.742591"/>
      </g>
     </g>
     <g id="text_42">
      <!-- 0.1 -->
      <g transform="translate(19.202475 354.54181)scale(0.1 -0.1)">
       <use xlink:href="#DejaVuSans-48"/>
       <use x="63.623047" xlink:href="#DejaVuSans-46"/>
       <use x="95.410156" xlink:href="#DejaVuSans-49"/>
      </g>
     </g>
    </g>
    <g id="ytick_12">
     <g id="line2d_89">
      <path clip-path="url(#p875efa6ee6)" d="M 42.1056 319.578427 
L 497.3724 319.578427 
" style="fill:none;stroke:#b0b0b0;stroke-linecap:square;stroke-width:0.8;"/>
     </g>
     <g id="line2d_90">
      <g>
       <use style="stroke:#000000;stroke-width:0.8;" x="42.1056" xlink:href="#m1a8f1c00c8" y="319.578427"/>
      </g>
     </g>
     <g id="text_43">
      <!-- 0.2 -->
      <g transform="translate(19.202475 323.377646)scale(0.1 -0.1)">
       <use xlink:href="#DejaVuSans-48"/>
       <use x="63.623047" xlink:href="#DejaVuSans-46"/>
       <use x="95.410156" xlink:href="#DejaVuSans-50"/>
      </g>
     </g>
    </g>
   </g>
   <g id="line2d_91">
    <path clip-path="url(#p875efa6ee6)" d="M 62.799545 391.694404 
L 64.86894 380.479562 
L 69.007729 352.317583 
L 71.077124 340.434213 
L 73.146518 337.775463 
L 77.285307 349.702843 
L 79.354702 340.573525 
L 81.424096 328.530831 
L 83.493491 324.291192 
L 85.562885 329.536791 
L 87.63228 337.877632 
L 89.701675 347.468772 
L 91.771069 350.460116 
L 95.909858 361.092156 
L 97.979253 364.255112 
L 102.118042 369.374911 
L 104.187436 371.806208 
L 106.256831 374.005549 
L 108.326225 375.858098 
L 110.39562 377.321153 
L 112.465015 378.425393 
L 114.534409 379.244885 
L 116.603804 379.860146 
L 118.673198 380.326045 
L 122.811987 380.926906 
L 129.020171 381.818524 
L 131.089565 382.125951 
L 133.15896 382.229986 
L 135.228355 381.886213 
L 137.297749 381.071796 
L 139.367144 379.852577 
L 143.505933 377.08485 
L 149.714116 375.360999 
L 151.783511 374.588492 
L 153.852905 374.000571 
L 155.9223 373.57504 
L 157.991695 373.276785 
L 160.061089 373.132977 
L 162.130484 373.404135 
L 164.199878 375.138077 
L 166.269273 375.863379 
L 168.338667 367.75895 
L 170.408062 352.665684 
L 172.477456 346.663808 
L 174.546851 358.735502 
L 176.616245 371.612239 
L 178.68564 370.242478 
L 180.755035 367.032661 
L 182.824429 371.011139 
L 184.893824 364.856914 
L 186.963218 363.842127 
L 189.032613 361.349533 
L 191.102007 361.101084 
L 193.171402 363.82952 
L 195.240796 367.855052 
L 197.310191 370.616398 
L 199.379585 374.531523 
L 201.44898 377.672156 
L 203.518375 381.316989 
L 205.587769 383.728863 
L 207.657164 384.098148 
L 209.726558 383.450732 
L 211.795953 382.5447 
L 213.865347 381.17048 
L 215.934742 381.097557 
L 218.004136 382.813268 
L 220.073531 385.194484 
L 222.142925 387.767773 
L 224.21232 389.544249 
L 226.281715 390.172629 
L 228.351109 391.973032 
L 230.420504 392.389825 
L 232.489898 392.164632 
L 236.628687 391.114135 
L 238.698082 391.391005 
L 240.767476 392.156648 
L 242.836871 391.979254 
L 244.906265 392.635242 
L 246.97566 392.961788 
L 249.045055 392.791938 
L 251.114449 393.489396 
L 253.183844 394.941646 
L 255.253238 396.936909 
L 257.322633 399.545888 
L 261.461422 405.632532 
L 263.530816 407.90826 
L 265.600211 407.018981 
L 267.669605 403.463694 
L 269.739 395.969066 
L 271.808395 383.68727 
L 273.877789 368.295319 
L 275.947184 351.067932 
L 278.016578 337.72401 
L 280.085973 336.831514 
L 282.155367 343.400626 
L 284.224762 353.835032 
L 286.294156 345.011554 
L 288.363551 323.614911 
L 290.432945 307.950882 
L 292.50234 308.217873 
L 294.571735 319.478953 
L 296.641129 335.099458 
L 300.779918 352.146896 
L 302.849313 358.741584 
L 304.918707 363.951355 
L 306.988102 368.369525 
L 309.057496 372.002951 
L 311.126891 374.801961 
L 313.196285 376.810444 
L 315.26568 378.160179 
L 317.335075 379.02602 
L 319.404469 379.580116 
L 323.543258 380.249572 
L 331.820836 381.234577 
L 333.890231 381.719965 
L 338.02902 383.013956 
L 340.098415 383.112679 
L 342.167809 382.344881 
L 344.237204 380.669641 
L 348.375993 376.156847 
L 352.514782 375.65188 
L 354.584176 375.213943 
L 356.653571 374.915796 
L 358.722965 375.166683 
L 360.79236 375.567418 
L 362.861755 375.813887 
L 364.931149 375.788405 
L 367.000544 375.59703 
L 369.069938 375.565314 
L 371.139333 375.953196 
L 373.208727 373.777975 
L 375.278122 361.994596 
L 377.347516 348.20555 
L 379.416911 348.252123 
L 381.486305 364.297685 
L 383.5557 376.280878 
L 387.694489 362.407567 
L 389.763884 369.217948 
L 391.833278 362.149378 
L 393.902673 361.546814 
L 395.972067 362.058495 
L 398.041462 364.853184 
L 400.110856 369.428742 
L 402.180251 372.802637 
L 404.249645 374.866994 
L 406.31904 379.215747 
L 408.388435 382.834856 
L 410.457829 385.539025 
L 412.527224 386.641354 
L 414.596618 385.567041 
L 416.666013 384.200254 
L 420.804802 386.408586 
L 422.874196 387.746101 
L 424.943591 390.768564 
L 427.012985 392.211178 
L 429.08238 393.45967 
L 431.151775 395.186609 
L 433.221169 396.122888 
L 435.290564 396.040171 
L 437.359958 395.378396 
L 439.429353 394.269463 
L 441.498747 393.556652 
L 443.568142 392.680508 
L 445.637536 391.537363 
L 447.706931 392.613363 
L 449.776325 393.896304 
L 451.84572 393.717037 
L 453.915115 392.981549 
L 455.984509 392.49703 
L 458.053904 392.478477 
L 460.123298 393.645731 
L 462.192693 395.94702 
L 464.262087 398.735738 
L 468.400876 404.639949 
L 470.470271 406.41125 
L 472.539665 406.469831 
L 474.60906 403.1709 
L 476.678455 396.495575 
L 476.678455 396.495575 
" style="fill:none;stroke:#e06666;stroke-linecap:square;stroke-width:3;"/>
   </g>
   <g id="line2d_92">
    <path clip-path="url(#p875efa6ee6)" d="M 62.799545 371.366176 
L 64.86894 372.247165 
L 66.938335 388.835591 
L 71.077124 348.675767 
L 73.146518 370.498052 
L 75.215913 364.240159 
L 77.285307 362.205705 
L 79.354702 371.38236 
L 81.424096 366.678531 
L 83.493491 374.350053 
L 85.562885 369.973465 
L 87.63228 372.575615 
L 89.701675 364.444493 
L 91.771069 367.81674 
L 93.840464 362.028855 
L 95.909858 367.689875 
L 97.979253 370.060328 
L 100.048647 375.081886 
L 102.118042 364.179985 
L 104.187436 364.757894 
L 106.256831 369.258068 
L 108.326225 370.311525 
L 110.39562 363.698803 
L 112.465015 371.543046 
L 114.534409 366.704399 
L 116.603804 365.939444 
L 118.673198 370.294911 
L 120.742593 363.154863 
L 122.811987 358.846225 
L 124.881382 361.762232 
L 126.950776 372.855604 
L 129.020171 379.243794 
L 131.089565 370.5993 
L 133.15896 369.973083 
L 135.228355 366.011075 
L 137.297749 369.215837 
L 139.367144 369.20572 
L 141.436538 370.457204 
L 143.505933 364.79822 
L 145.575327 365.45178 
L 147.644722 364.624495 
L 149.714116 361.217078 
L 151.783511 364.845741 
L 153.852905 364.461914 
L 155.9223 357.030588 
L 157.991695 364.405756 
L 160.061089 364.103737 
L 162.130484 370.161128 
L 164.199878 377.861687 
L 166.269273 364.562178 
L 168.338667 348.878472 
L 170.408062 351.519351 
L 172.477456 361.557491 
L 174.546851 372.67737 
L 176.616245 368.419562 
L 178.68564 362.597405 
L 180.755035 378.570652 
L 182.824429 376.385546 
L 184.893824 371.112073 
L 186.963218 372.069812 
L 189.032613 369.87596 
L 193.171402 364.646373 
L 195.240796 371.241701 
L 197.310191 363.949793 
L 199.379585 377.620017 
L 201.44898 373.632275 
L 203.518375 372.006938 
L 205.587769 375.65982 
L 207.657164 374.031598 
L 209.726558 372.884693 
L 211.795953 378.715582 
L 213.865347 382.069331 
L 215.934742 381.786633 
L 218.004136 377.375509 
L 222.142925 385.15022 
L 224.21232 386.70553 
L 226.281715 388.019865 
L 228.351109 391.310178 
L 232.489898 388.264881 
L 234.559293 390.906342 
L 236.628687 394.190146 
L 238.698082 390.096077 
L 240.767476 386.73224 
L 242.836871 382.040128 
L 244.906265 385.643648 
L 246.97566 400.235384 
L 249.045055 390.521311 
L 251.114449 384.294197 
L 255.253238 382.043552 
L 257.322633 381.945804 
L 259.392027 402.428028 
L 261.461422 382.422503 
L 263.530816 378.777352 
L 265.600211 385.756486 
L 267.669605 383.048392 
L 269.739 366.966676 
L 271.808395 412.361471 
L 273.877789 371.262044 
L 275.947184 380.652473 
L 278.016578 383.634211 
L 280.085973 364.332761 
L 282.155367 370.007965 
L 284.224762 353.959289 
L 286.294156 377.029822 
L 288.363551 379.952084 
L 290.432945 377.848051 
L 292.50234 372.494494 
L 294.571735 362.807761 
L 296.641129 367.194312 
L 298.710524 375.137763 
L 300.779918 369.259342 
L 302.849313 371.021999 
L 304.918707 371.963322 
L 306.988102 364.042818 
L 309.057496 364.900875 
L 311.126891 375.981801 
L 313.196285 362.994851 
L 315.26568 369.044911 
L 317.335075 367.266923 
L 319.404469 367.906382 
L 321.473864 371.86597 
L 323.543258 364.043311 
L 325.612653 378.27015 
L 327.682047 366.289533 
L 329.751442 378.885271 
L 331.820836 367.589957 
L 333.890231 369.321952 
L 335.959625 371.928 
L 338.02902 365.245195 
L 340.098415 362.644622 
L 342.167809 369.438835 
L 344.237204 368.82566 
L 346.306598 369.984245 
L 348.375993 373.740163 
L 350.445387 360.613868 
L 352.514782 365.38149 
L 354.584176 378.200803 
L 356.653571 380.959358 
L 358.722965 354.290396 
L 360.79236 368.152399 
L 362.861755 363.488278 
L 364.931149 369.864309 
L 367.000544 365.232354 
L 369.069938 374.570555 
L 371.139333 367.572536 
L 373.208727 366.24267 
L 375.278122 379.237877 
L 377.347516 373.124928 
L 379.416911 347.5129 
L 383.5557 363.125577 
L 385.625095 367.467604 
L 387.694489 370.923907 
L 389.763884 364.927878 
L 391.833278 367.113762 
L 393.902673 366.612594 
L 395.972067 377.432796 
L 398.041462 374.518861 
L 400.110856 370.817468 
L 402.180251 376.327433 
L 404.249645 374.979949 
L 406.31904 372.328579 
L 408.388435 377.851308 
L 410.457829 378.054522 
L 412.527224 380.342085 
L 414.596618 372.490765 
L 416.666013 376.597726 
L 418.735407 377.66407 
L 420.804802 372.631149 
L 422.874196 383.433059 
L 424.943591 384.158051 
L 427.012985 382.661268 
L 429.08238 390.638137 
L 431.151775 379.236801 
L 433.221169 380.579997 
L 435.290564 392.997884 
L 437.359958 401.447924 
L 439.429353 391.152135 
L 441.498747 392.416173 
L 443.568142 400.551351 
L 445.637536 393.866773 
L 447.706931 381.987062 
L 449.776325 387.234825 
L 451.84572 398.551613 
L 453.915115 395.559228 
L 455.984509 392.164271 
L 458.053904 409.874088 
L 460.123298 399.086853 
L 462.192693 382.814875 
L 464.262087 386.929302 
L 466.331482 387.25852 
L 468.400876 401.912102 
L 470.470271 382.580852 
L 472.539665 401.684079 
L 474.60906 367.911982 
L 476.678455 380.78649 
L 476.678455 380.78649 
" style="fill:none;stroke:#4a86e8;stroke-dasharray:4.44,1.92;stroke-dashoffset:0;stroke-width:1.2;"/>
   </g>
   <g id="patch_15">
    <path d="M 42.1056 417.582 
L 42.1056 302.730353 
" style="fill:none;stroke:#000000;stroke-linecap:square;stroke-linejoin:miter;stroke-width:0.8;"/>
   </g>
   <g id="patch_16">
    <path d="M 497.3724 417.582 
L 497.3724 302.730353 
" style="fill:none;stroke:#000000;stroke-linecap:square;stroke-linejoin:miter;stroke-width:0.8;"/>
   </g>
   <g id="patch_17">
    <path d="M 42.1056 417.582 
L 497.3724 417.582 
" style="fill:none;stroke:#000000;stroke-linecap:square;stroke-linejoin:miter;stroke-width:0.8;"/>
   </g>
   <g id="patch_18">
    <path d="M 42.1056 302.730353 
L 497.3724 302.730353 
" style="fill:none;stroke:#000000;stroke-linecap:square;stroke-linejoin:miter;stroke-width:0.8;"/>
   </g>
   <g id="legend_3">
    <g id="patch_19">
     <path d="M 395.19115 340.086603 
L 490.3724 340.086603 
Q 492.3724 340.086603 492.3724 338.086603 
L 492.3724 309.730353 
Q 492.3724 307.730353 490.3724 307.730353 
L 395.19115 307.730353 
Q 393.19115 307.730353 393.19115 309.730353 
L 393.19115 338.086603 
Q 393.19115 340.086603 395.19115 340.086603 
z
" style="fill:#ffffff;opacity:0.8;stroke:#cccccc;stroke-linejoin:miter;"/>
    </g>
    <g id="line2d_93">
     <path d="M 397.19115 315.82879 
L 417.19115 315.82879 
" style="fill:none;stroke:#e06666;stroke-linecap:square;stroke-width:3;"/>
    </g>
    <g id="line2d_94"/>
    <g id="text_44">
     <!-- ground truth -->
     <g transform="translate(425.19115 319.32879)scale(0.1 -0.1)">
      <use xlink:href="#DejaVuSans-103"/>
      <use x="63.476562" xlink:href="#DejaVuSans-114"/>
      <use x="102.339844" xlink:href="#DejaVuSans-111"/>
      <use x="163.521484" xlink:href="#DejaVuSans-117"/>
      <use x="226.900391" xlink:href="#DejaVuSans-110"/>
      <use x="290.279297" xlink:href="#DejaVuSans-100"/>
      <use x="353.755859" xlink:href="#DejaVuSans-32"/>
      <use x="385.542969" xlink:href="#DejaVuSans-116"/>
      <use x="424.751953" xlink:href="#DejaVuSans-114"/>
      <use x="465.865234" xlink:href="#DejaVuSans-117"/>
      <use x="529.244141" xlink:href="#DejaVuSans-116"/>
      <use x="568.453125" xlink:href="#DejaVuSans-104"/>
     </g>
    </g>
    <g id="line2d_95">
     <path d="M 397.19115 330.506915 
L 417.19115 330.506915 
" style="fill:none;stroke:#4a86e8;stroke-dasharray:4.44,1.92;stroke-dashoffset:0;stroke-width:1.2;"/>
    </g>
    <g id="line2d_96"/>
    <g id="text_45">
     <!-- prediction -->
     <g transform="translate(425.19115 334.006915)scale(0.1 -0.1)">
      <use xlink:href="#DejaVuSans-112"/>
      <use x="63.476562" xlink:href="#DejaVuSans-114"/>
      <use x="102.339844" xlink:href="#DejaVuSans-101"/>
      <use x="163.863281" xlink:href="#DejaVuSans-100"/>
      <use x="227.339844" xlink:href="#DejaVuSans-105"/>
      <use x="255.123047" xlink:href="#DejaVuSans-99"/>
      <use x="310.103516" xlink:href="#DejaVuSans-116"/>
      <use x="349.3125" xlink:href="#DejaVuSans-105"/>
      <use x="377.095703" xlink:href="#DejaVuSans-111"/>
      <use x="438.277344" xlink:href="#DejaVuSans-110"/>
     </g>
    </g>
   </g>
  </g>
 </g>
 <defs>
  <clipPath id="pf52a304f5f">
   <rect height="114.851647" width="455.2668" x="42.1056" y="27.0864"/>
  </clipPath>
  <clipPath id="p71bfedf5ce">
   <rect height="114.851647" width="455.2668" x="42.1056" y="164.908376"/>
  </clipPath>
  <clipPath id="p875efa6ee6">
   <rect height="114.851647" width="455.2668" x="42.1056" y="302.730353"/>
  </clipPath>
 </defs>
</svg>
