<?xml version="1.0" encoding="utf-8" standalone="no"?>
<!DOCTYPE svg PUBLIC "-//W3C//DTD SVG 1.1//EN"
  "http://www.w3.org/Graphics/SVG/1.1/DTD/svg11.dtd">
<!-- Created with matplotlib (https://matplotlib.org/) -->
<svg height="592.56pt" version="1.1" viewBox="0 0 720.72 592.56" width="720.72pt" xmlns="http://www.w3.org/2000/svg" xmlns:xlink="http://www.w3.org/1999/xlink">
 <metadata>
  <rdf:RDF xmlns:cc="http://creativecommons.org/ns#" xmlns:dc="http://purl.org/dc/elements/1.1/" xmlns:rdf="http://www.w3.org/1999/02/22-rdf-syntax-ns#">
   <cc:Work>
    <dc:type rdf:resource="http://purl.org/dc/dcmitype/StillImage"/>
    <dc:date>2021-11-18T15:58:09.802434</dc:date>
    <dc:format>image/svg+xml</dc:format>
    <dc:creator>
     <cc:Agent>
      <dc:title>Matplotlib v3.3.2, https://matplotlib.org/</dc:title>
     </cc:Agent>
    </dc:creator>
   </cc:Work>
  </rdf:RDF>
 </metadata>
 <defs>
  <style type="text/css">*{stroke-linecap:butt;stroke-linejoin:round;}</style>
 </defs>
 <g id="figure_1">
  <g id="patch_1">
   <path d="M 0 592.56 
L 720.72 592.56 
L 720.72 0 
L 0 0 
z
" style="fill:#ffffff;"/>
  </g>
  <g id="axes_1">
   <g id="patch_2">
    <path d="M 90.09 205.304612 
L 648.648 205.304612 
L 648.648 71.1072 
L 90.09 71.1072 
z
" style="fill:#ffffff;"/>
   </g>
   <g id="matplotlib.axis_1">
    <g id="xtick_1">
     <g id="line2d_1">
      <path clip-path="url(#p8efc219134)" d="M 112.9401 205.304612 
L 112.9401 71.1072 
" style="fill:none;stroke:#b0b0b0;stroke-linecap:square;stroke-width:0.8;"/>
     </g>
     <g id="line2d_2">
      <defs>
       <path d="M 0 0 
L 0 3.5 
" id="m5d6f85c63d" style="stroke:#000000;stroke-width:0.8;"/>
      </defs>
      <g>
       <use style="stroke:#000000;stroke-width:0.8;" x="112.9401" xlink:href="#m5d6f85c63d" y="205.304612"/>
      </g>
     </g>
     <g id="text_1">
      <!-- 0 -->
      <g transform="translate(109.75885 219.903049)scale(0.1 -0.1)">
       <defs>
        <path d="M 31.78125 66.40625 
Q 24.171875 66.40625 20.328125 58.90625 
Q 16.5 51.421875 16.5 36.375 
Q 16.5 21.390625 20.328125 13.890625 
Q 24.171875 6.390625 31.78125 6.390625 
Q 39.453125 6.390625 43.28125 13.890625 
Q 47.125 21.390625 47.125 36.375 
Q 47.125 51.421875 43.28125 58.90625 
Q 39.453125 66.40625 31.78125 66.40625 
z
M 31.78125 74.21875 
Q 44.046875 74.21875 50.515625 64.515625 
Q 56.984375 54.828125 56.984375 36.375 
Q 56.984375 17.96875 50.515625 8.265625 
Q 44.046875 -1.421875 31.78125 -1.421875 
Q 19.53125 -1.421875 13.0625 8.265625 
Q 6.59375 17.96875 6.59375 36.375 
Q 6.59375 54.828125 13.0625 64.515625 
Q 19.53125 74.21875 31.78125 74.21875 
z
" id="DejaVuSans-48"/>
       </defs>
       <use xlink:href="#DejaVuSans-48"/>
      </g>
     </g>
    </g>
    <g id="xtick_2">
     <g id="line2d_3">
      <path clip-path="url(#p8efc219134)" d="M 176.4126 205.304612 
L 176.4126 71.1072 
" style="fill:none;stroke:#b0b0b0;stroke-linecap:square;stroke-width:0.8;"/>
     </g>
     <g id="line2d_4">
      <g>
       <use style="stroke:#000000;stroke-width:0.8;" x="176.4126" xlink:href="#m5d6f85c63d" y="205.304612"/>
      </g>
     </g>
     <g id="text_2">
      <!-- 25 -->
      <g transform="translate(170.0501 219.903049)scale(0.1 -0.1)">
       <defs>
        <path d="M 19.1875 8.296875 
L 53.609375 8.296875 
L 53.609375 0 
L 7.328125 0 
L 7.328125 8.296875 
Q 12.9375 14.109375 22.625 23.890625 
Q 32.328125 33.6875 34.8125 36.53125 
Q 39.546875 41.84375 41.421875 45.53125 
Q 43.3125 49.21875 43.3125 52.78125 
Q 43.3125 58.59375 39.234375 62.25 
Q 35.15625 65.921875 28.609375 65.921875 
Q 23.96875 65.921875 18.8125 64.3125 
Q 13.671875 62.703125 7.8125 59.421875 
L 7.8125 69.390625 
Q 13.765625 71.78125 18.9375 73 
Q 24.125 74.21875 28.421875 74.21875 
Q 39.75 74.21875 46.484375 68.546875 
Q 53.21875 62.890625 53.21875 53.421875 
Q 53.21875 48.921875 51.53125 44.890625 
Q 49.859375 40.875 45.40625 35.40625 
Q 44.1875 33.984375 37.640625 27.21875 
Q 31.109375 20.453125 19.1875 8.296875 
z
" id="DejaVuSans-50"/>
        <path d="M 10.796875 72.90625 
L 49.515625 72.90625 
L 49.515625 64.59375 
L 19.828125 64.59375 
L 19.828125 46.734375 
Q 21.96875 47.46875 24.109375 47.828125 
Q 26.265625 48.1875 28.421875 48.1875 
Q 40.625 48.1875 47.75 41.5 
Q 54.890625 34.8125 54.890625 23.390625 
Q 54.890625 11.625 47.5625 5.09375 
Q 40.234375 -1.421875 26.90625 -1.421875 
Q 22.3125 -1.421875 17.546875 -0.640625 
Q 12.796875 0.140625 7.71875 1.703125 
L 7.71875 11.625 
Q 12.109375 9.234375 16.796875 8.0625 
Q 21.484375 6.890625 26.703125 6.890625 
Q 35.15625 6.890625 40.078125 11.328125 
Q 45.015625 15.765625 45.015625 23.390625 
Q 45.015625 31 40.078125 35.4375 
Q 35.15625 39.890625 26.703125 39.890625 
Q 22.75 39.890625 18.8125 39.015625 
Q 14.890625 38.140625 10.796875 36.28125 
z
" id="DejaVuSans-53"/>
       </defs>
       <use xlink:href="#DejaVuSans-50"/>
       <use x="63.623047" xlink:href="#DejaVuSans-53"/>
      </g>
     </g>
    </g>
    <g id="xtick_3">
     <g id="line2d_5">
      <path clip-path="url(#p8efc219134)" d="M 239.8851 205.304612 
L 239.8851 71.1072 
" style="fill:none;stroke:#b0b0b0;stroke-linecap:square;stroke-width:0.8;"/>
     </g>
     <g id="line2d_6">
      <g>
       <use style="stroke:#000000;stroke-width:0.8;" x="239.8851" xlink:href="#m5d6f85c63d" y="205.304612"/>
      </g>
     </g>
     <g id="text_3">
      <!-- 50 -->
      <g transform="translate(233.5226 219.903049)scale(0.1 -0.1)">
       <use xlink:href="#DejaVuSans-53"/>
       <use x="63.623047" xlink:href="#DejaVuSans-48"/>
      </g>
     </g>
    </g>
    <g id="xtick_4">
     <g id="line2d_7">
      <path clip-path="url(#p8efc219134)" d="M 303.3576 205.304612 
L 303.3576 71.1072 
" style="fill:none;stroke:#b0b0b0;stroke-linecap:square;stroke-width:0.8;"/>
     </g>
     <g id="line2d_8">
      <g>
       <use style="stroke:#000000;stroke-width:0.8;" x="303.3576" xlink:href="#m5d6f85c63d" y="205.304612"/>
      </g>
     </g>
     <g id="text_4">
      <!-- 75 -->
      <g transform="translate(296.9951 219.903049)scale(0.1 -0.1)">
       <defs>
        <path d="M 8.203125 72.90625 
L 55.078125 72.90625 
L 55.078125 68.703125 
L 28.609375 0 
L 18.3125 0 
L 43.21875 64.59375 
L 8.203125 64.59375 
z
" id="DejaVuSans-55"/>
       </defs>
       <use xlink:href="#DejaVuSans-55"/>
       <use x="63.623047" xlink:href="#DejaVuSans-53"/>
      </g>
     </g>
    </g>
    <g id="xtick_5">
     <g id="line2d_9">
      <path clip-path="url(#p8efc219134)" d="M 366.8301 205.304612 
L 366.8301 71.1072 
" style="fill:none;stroke:#b0b0b0;stroke-linecap:square;stroke-width:0.8;"/>
     </g>
     <g id="line2d_10">
      <g>
       <use style="stroke:#000000;stroke-width:0.8;" x="366.8301" xlink:href="#m5d6f85c63d" y="205.304612"/>
      </g>
     </g>
     <g id="text_5">
      <!-- 100 -->
      <g transform="translate(357.28635 219.903049)scale(0.1 -0.1)">
       <defs>
        <path d="M 12.40625 8.296875 
L 28.515625 8.296875 
L 28.515625 63.921875 
L 10.984375 60.40625 
L 10.984375 69.390625 
L 28.421875 72.90625 
L 38.28125 72.90625 
L 38.28125 8.296875 
L 54.390625 8.296875 
L 54.390625 0 
L 12.40625 0 
z
" id="DejaVuSans-49"/>
       </defs>
       <use xlink:href="#DejaVuSans-49"/>
       <use x="63.623047" xlink:href="#DejaVuSans-48"/>
       <use x="127.246094" xlink:href="#DejaVuSans-48"/>
      </g>
     </g>
    </g>
    <g id="xtick_6">
     <g id="line2d_11">
      <path clip-path="url(#p8efc219134)" d="M 430.3026 205.304612 
L 430.3026 71.1072 
" style="fill:none;stroke:#b0b0b0;stroke-linecap:square;stroke-width:0.8;"/>
     </g>
     <g id="line2d_12">
      <g>
       <use style="stroke:#000000;stroke-width:0.8;" x="430.3026" xlink:href="#m5d6f85c63d" y="205.304612"/>
      </g>
     </g>
     <g id="text_6">
      <!-- 125 -->
      <g transform="translate(420.75885 219.903049)scale(0.1 -0.1)">
       <use xlink:href="#DejaVuSans-49"/>
       <use x="63.623047" xlink:href="#DejaVuSans-50"/>
       <use x="127.246094" xlink:href="#DejaVuSans-53"/>
      </g>
     </g>
    </g>
    <g id="xtick_7">
     <g id="line2d_13">
      <path clip-path="url(#p8efc219134)" d="M 493.7751 205.304612 
L 493.7751 71.1072 
" style="fill:none;stroke:#b0b0b0;stroke-linecap:square;stroke-width:0.8;"/>
     </g>
     <g id="line2d_14">
      <g>
       <use style="stroke:#000000;stroke-width:0.8;" x="493.7751" xlink:href="#m5d6f85c63d" y="205.304612"/>
      </g>
     </g>
     <g id="text_7">
      <!-- 150 -->
      <g transform="translate(484.23135 219.903049)scale(0.1 -0.1)">
       <use xlink:href="#DejaVuSans-49"/>
       <use x="63.623047" xlink:href="#DejaVuSans-53"/>
       <use x="127.246094" xlink:href="#DejaVuSans-48"/>
      </g>
     </g>
    </g>
    <g id="xtick_8">
     <g id="line2d_15">
      <path clip-path="url(#p8efc219134)" d="M 557.2476 205.304612 
L 557.2476 71.1072 
" style="fill:none;stroke:#b0b0b0;stroke-linecap:square;stroke-width:0.8;"/>
     </g>
     <g id="line2d_16">
      <g>
       <use style="stroke:#000000;stroke-width:0.8;" x="557.2476" xlink:href="#m5d6f85c63d" y="205.304612"/>
      </g>
     </g>
     <g id="text_8">
      <!-- 175 -->
      <g transform="translate(547.70385 219.903049)scale(0.1 -0.1)">
       <use xlink:href="#DejaVuSans-49"/>
       <use x="63.623047" xlink:href="#DejaVuSans-55"/>
       <use x="127.246094" xlink:href="#DejaVuSans-53"/>
      </g>
     </g>
    </g>
    <g id="xtick_9">
     <g id="line2d_17">
      <path clip-path="url(#p8efc219134)" d="M 620.7201 205.304612 
L 620.7201 71.1072 
" style="fill:none;stroke:#b0b0b0;stroke-linecap:square;stroke-width:0.8;"/>
     </g>
     <g id="line2d_18">
      <g>
       <use style="stroke:#000000;stroke-width:0.8;" x="620.7201" xlink:href="#m5d6f85c63d" y="205.304612"/>
      </g>
     </g>
     <g id="text_9">
      <!-- 200 -->
      <g transform="translate(611.17635 219.903049)scale(0.1 -0.1)">
       <use xlink:href="#DejaVuSans-50"/>
       <use x="63.623047" xlink:href="#DejaVuSans-48"/>
       <use x="127.246094" xlink:href="#DejaVuSans-48"/>
      </g>
     </g>
    </g>
   </g>
   <g id="matplotlib.axis_2">
    <g id="ytick_1">
     <g id="line2d_19">
      <path clip-path="url(#p8efc219134)" d="M 90.09 183.071012 
L 648.648 183.071012 
" style="fill:none;stroke:#b0b0b0;stroke-linecap:square;stroke-width:0.8;"/>
     </g>
     <g id="line2d_20">
      <defs>
       <path d="M 0 0 
L -3.5 0 
" id="m7e0ec8b29d" style="stroke:#000000;stroke-width:0.8;"/>
      </defs>
      <g>
       <use style="stroke:#000000;stroke-width:0.8;" x="90.09" xlink:href="#m7e0ec8b29d" y="183.071012"/>
      </g>
     </g>
     <g id="text_10">
      <!-- −0.2 -->
      <g transform="translate(58.807187 186.870231)scale(0.1 -0.1)">
       <defs>
        <path d="M 10.59375 35.5 
L 73.1875 35.5 
L 73.1875 27.203125 
L 10.59375 27.203125 
z
" id="DejaVuSans-8722"/>
        <path d="M 10.6875 12.40625 
L 21 12.40625 
L 21 0 
L 10.6875 0 
z
" id="DejaVuSans-46"/>
       </defs>
       <use xlink:href="#DejaVuSans-8722"/>
       <use x="83.789062" xlink:href="#DejaVuSans-48"/>
       <use x="147.412109" xlink:href="#DejaVuSans-46"/>
       <use x="179.199219" xlink:href="#DejaVuSans-50"/>
      </g>
     </g>
    </g>
    <g id="ytick_2">
     <g id="line2d_21">
      <path clip-path="url(#p8efc219134)" d="M 90.09 142.177772 
L 648.648 142.177772 
" style="fill:none;stroke:#b0b0b0;stroke-linecap:square;stroke-width:0.8;"/>
     </g>
     <g id="line2d_22">
      <g>
       <use style="stroke:#000000;stroke-width:0.8;" x="90.09" xlink:href="#m7e0ec8b29d" y="142.177772"/>
      </g>
     </g>
     <g id="text_11">
      <!-- 0.0 -->
      <g transform="translate(67.186875 145.976991)scale(0.1 -0.1)">
       <use xlink:href="#DejaVuSans-48"/>
       <use x="63.623047" xlink:href="#DejaVuSans-46"/>
       <use x="95.410156" xlink:href="#DejaVuSans-48"/>
      </g>
     </g>
    </g>
    <g id="ytick_3">
     <g id="line2d_23">
      <path clip-path="url(#p8efc219134)" d="M 90.09 101.284533 
L 648.648 101.284533 
" style="fill:none;stroke:#b0b0b0;stroke-linecap:square;stroke-width:0.8;"/>
     </g>
     <g id="line2d_24">
      <g>
       <use style="stroke:#000000;stroke-width:0.8;" x="90.09" xlink:href="#m7e0ec8b29d" y="101.284533"/>
      </g>
     </g>
     <g id="text_12">
      <!-- 0.2 -->
      <g transform="translate(67.186875 105.083751)scale(0.1 -0.1)">
       <use xlink:href="#DejaVuSans-48"/>
       <use x="63.623047" xlink:href="#DejaVuSans-46"/>
       <use x="95.410156" xlink:href="#DejaVuSans-50"/>
      </g>
     </g>
    </g>
   </g>
   <g id="line2d_25">
    <path clip-path="url(#p8efc219134)" d="M 115.479 195.055443 
L 118.0179 195.199574 
L 120.5568 194.902943 
L 123.0957 194.097574 
L 125.6346 192.601942 
L 128.1735 190.33069 
L 130.7124 187.755139 
L 135.7902 180.458728 
L 138.3291 176.043132 
L 140.868 171.034695 
L 145.9458 159.509986 
L 151.0236 148.063341 
L 153.5625 142.081441 
L 156.1014 136.840499 
L 163.7181 122.184053 
L 166.257 117.850571 
L 168.7959 113.813541 
L 171.3348 110.107615 
L 173.8737 106.745155 
L 176.4126 103.730314 
L 181.4904 98.657453 
L 184.0293 96.935185 
L 186.5682 95.515581 
L 191.646 93.15987 
L 196.7238 92.795034 
L 199.2627 92.905627 
L 201.8016 93.524043 
L 204.3405 93.721543 
L 206.8794 94.37351 
L 209.4183 95.392876 
L 211.9572 96.075419 
L 214.4961 96.959376 
L 217.035 98.15116 
L 219.5739 98.769667 
L 224.6517 100.467482 
L 227.1906 101.129714 
L 229.7295 101.620134 
L 232.2684 102.257265 
L 239.8851 104.892184 
L 242.424 105.945387 
L 244.9629 107.27794 
L 260.1963 116.365401 
L 265.2741 119.771236 
L 270.3519 124.234122 
L 277.9686 132.084959 
L 283.0464 137.572814 
L 285.5853 140.727894 
L 293.202 148.613565 
L 295.7409 151.189268 
L 300.8187 155.687404 
L 308.4354 161.203779 
L 316.0521 166.230754 
L 323.6688 172.093783 
L 326.2077 173.666979 
L 328.7466 175.629079 
L 336.3633 179.861886 
L 343.98 183.25561 
L 349.0578 184.85616 
L 351.5967 186.055102 
L 354.1356 186.933366 
L 356.6745 187.995401 
L 359.2134 188.909107 
L 361.7523 190.226225 
L 364.2912 191.249018 
L 366.8301 192.073677 
L 369.369 192.665131 
L 371.9079 192.962879 
L 374.4468 192.62757 
L 376.9857 191.868634 
L 379.5246 190.354721 
L 382.0635 188.195145 
L 384.6024 185.155518 
L 387.1413 181.483025 
L 389.6802 177.240752 
L 394.758 167.288528 
L 404.9136 142.855065 
L 407.4525 136.765836 
L 409.9914 131.287609 
L 415.0692 121.480102 
L 417.6081 116.771774 
L 422.6859 109.101451 
L 425.2248 105.586544 
L 427.7637 102.424716 
L 430.3026 99.557884 
L 432.8415 97.228706 
L 435.3804 95.06984 
L 437.9193 93.43005 
L 442.9971 91.24443 
L 448.0749 90.119469 
L 450.6138 90.43243 
L 453.1527 90.897214 
L 455.6916 91.507207 
L 458.2305 92.62342 
L 460.7694 93.56549 
L 470.925 98.569549 
L 473.4639 99.532315 
L 476.0028 100.255599 
L 478.5417 100.862663 
L 481.0806 101.30624 
L 486.1584 101.845561 
L 491.2362 103.273186 
L 493.7751 104.101242 
L 496.314 105.157268 
L 498.8529 106.452358 
L 506.4696 111.192155 
L 509.0085 113.030309 
L 514.0863 116.358193 
L 516.6252 118.163991 
L 524.2419 125.222058 
L 529.3197 130.665649 
L 534.3975 135.982846 
L 536.9364 139.054913 
L 542.0142 144.598067 
L 549.6309 152.383171 
L 552.1698 154.670178 
L 559.7865 161.040439 
L 562.3254 162.923267 
L 569.9421 169.19645 
L 572.481 171.085282 
L 575.0199 173.194564 
L 580.0977 176.941736 
L 582.6366 178.55516 
L 585.1755 180.364878 
L 587.7144 181.760895 
L 590.2533 182.424905 
L 592.7922 183.577941 
L 600.4089 185.866818 
L 602.9478 186.439747 
L 610.5645 188.825279 
L 618.1812 191.791037 
L 620.7201 192.530166 
L 623.259 193.144388 
L 623.259 193.144388 
" style="fill:none;stroke:#e06666;stroke-linecap:square;stroke-width:3;"/>
   </g>
   <g id="line2d_26">
    <path clip-path="url(#p8efc219134)" d="M 115.479 189.82707 
L 118.0179 190.844202 
L 120.5568 196.345548 
L 123.0957 193.887549 
L 125.6346 188.590234 
L 128.1735 182.369229 
L 130.7124 171.931057 
L 133.2513 169.107642 
L 135.7902 164.746313 
L 138.3291 155.711233 
L 140.868 152.125545 
L 143.4069 147.193829 
L 145.9458 133.924447 
L 148.4847 124.970168 
L 151.0236 114.426026 
L 153.5625 115.315014 
L 156.1014 110.898015 
L 158.6403 111.710294 
L 161.1792 112.900959 
L 163.7181 112.654639 
L 166.257 104.142269 
L 168.7959 98.938036 
L 171.3348 89.163405 
L 173.8737 93.655087 
L 176.4126 88.43994 
L 178.9515 86.807778 
L 181.4904 89.022723 
L 184.0293 80.707983 
L 186.5682 77.207082 
L 189.1071 80.033188 
L 191.646 88.968356 
L 194.1849 85.573685 
L 196.7238 90.066509 
L 199.2627 93.438375 
L 201.8016 88.967327 
L 204.3405 89.041875 
L 206.8794 91.143915 
L 209.4183 84.80804 
L 211.9572 91.314986 
L 214.4961 95.258783 
L 217.035 105.400262 
L 219.5739 112.438625 
L 222.1128 116.922642 
L 224.6517 124.721734 
L 227.1906 126.404241 
L 229.7295 129.933359 
L 232.2684 134.79158 
L 234.8073 137.158547 
L 237.3462 139.313489 
L 239.8851 140.985513 
L 242.424 130.655632 
L 244.9629 129.670257 
L 247.5018 132.305956 
L 250.0407 123.646869 
L 252.5796 130.629438 
L 255.1185 126.812497 
L 257.6574 125.327425 
L 260.1963 122.5623 
L 262.7352 128.700458 
L 265.2741 131.190297 
L 267.813 132.56572 
L 270.3519 140.196142 
L 272.8908 137.404061 
L 275.4297 146.89823 
L 277.9686 147.915976 
L 280.5075 146.257471 
L 283.0464 145.544705 
L 285.5853 147.923408 
L 288.1242 149.95144 
L 290.6631 149.997696 
L 293.202 152.048094 
L 295.7409 153.290647 
L 298.2798 157.004125 
L 300.8187 161.675458 
L 303.3576 163.122415 
L 305.8965 170.553963 
L 308.4354 173.218924 
L 310.9743 178.079955 
L 313.5132 182.292992 
L 316.0521 181.178515 
L 321.1299 182.987616 
L 323.6688 180.210183 
L 326.2077 176.465321 
L 328.7466 176.165645 
L 331.2855 179.173144 
L 333.8244 176.903213 
L 336.3633 177.690405 
L 338.9022 179.231816 
L 341.4411 178.169506 
L 343.98 183.549836 
L 346.5189 182.262649 
L 349.0578 183.297879 
L 351.5967 181.378765 
L 354.1356 184.25655 
L 356.6745 182.351067 
L 359.2134 188.74654 
L 361.7523 196.763439 
L 364.2912 186.794975 
L 366.8301 192.716366 
L 369.369 189.85383 
L 371.9079 199.204729 
L 374.4468 195.488915 
L 376.9857 192.44341 
L 379.5246 181.653058 
L 382.0635 181.12087 
L 384.6024 175.390424 
L 387.1413 169.084688 
L 389.6802 162.217606 
L 392.2191 150.573676 
L 394.758 145.062565 
L 397.2969 138.25542 
L 399.8358 128.670795 
L 402.3747 124.167207 
L 404.9136 117.113649 
L 407.4525 109.59309 
L 409.9914 112.716656 
L 412.5303 110.416517 
L 415.0692 111.830563 
L 417.6081 110.140049 
L 420.147 104.877875 
L 422.6859 98.903598 
L 425.2248 97.214855 
L 427.7637 92.405558 
L 430.3026 88.182445 
L 432.8415 85.974453 
L 435.3804 90.637799 
L 437.9193 90.398974 
L 440.4582 85.933284 
L 442.9971 79.42185 
L 445.536 85.961089 
L 448.0749 89.89506 
L 450.6138 91.865875 
L 453.1527 93.58722 
L 455.6916 88.155931 
L 458.2305 90.431617 
L 460.7694 90.471676 
L 463.3083 88.717624 
L 465.8472 93.698555 
L 468.3861 96.351216 
L 470.925 102.728196 
L 473.4639 110.667548 
L 476.0028 114.951594 
L 478.5417 121.218426 
L 481.0806 130.822974 
L 483.6195 134.964757 
L 486.1584 136.258517 
L 488.6973 139.939059 
L 491.2362 144.682174 
L 493.7751 141.550121 
L 496.314 141.083275 
L 498.8529 135.213966 
L 501.3918 130.894098 
L 503.9307 131.507312 
L 506.4696 131.272881 
L 509.0085 131.367386 
L 511.5474 131.984057 
L 514.0863 123.076102 
L 516.6252 120.831927 
L 519.1641 125.017227 
L 521.703 120.055191 
L 524.2419 123.119433 
L 526.7808 122.511456 
L 529.3197 126.859436 
L 531.8586 132.382312 
L 534.3975 138.275625 
L 536.9364 141.775009 
L 539.4753 143.364796 
L 542.0142 148.14456 
L 544.5531 155.035238 
L 547.092 154.256562 
L 549.6309 160.10788 
L 552.1698 165.070761 
L 554.7087 170.988017 
L 557.2476 167.210131 
L 559.7865 169.626565 
L 567.4032 180.571703 
L 569.9421 178.216825 
L 572.481 177.811819 
L 575.0199 179.846065 
L 577.5588 179.594078 
L 580.0977 180.83322 
L 582.6366 180.95603 
L 585.1755 176.965429 
L 587.7144 179.393018 
L 590.2533 179.372318 
L 592.7922 177.622529 
L 595.3311 184.436176 
L 597.87 186.281126 
L 600.4089 184.461495 
L 602.9478 184.438815 
L 605.4867 190.642865 
L 608.0256 191.712383 
L 610.5645 192.57033 
L 613.1034 193.821599 
L 615.6423 194.834861 
L 618.1812 195.354143 
L 620.7201 190.482528 
L 623.259 185.064274 
L 623.259 185.064274 
" style="fill:none;stroke:#4a86e8;stroke-dasharray:4.44,1.92;stroke-dashoffset:0;stroke-width:1.2;"/>
   </g>
   <g id="patch_3">
    <path d="M 90.09 205.304612 
L 90.09 71.1072 
" style="fill:none;stroke:#000000;stroke-linecap:square;stroke-linejoin:miter;stroke-width:0.8;"/>
   </g>
   <g id="patch_4">
    <path d="M 648.648 205.304612 
L 648.648 71.1072 
" style="fill:none;stroke:#000000;stroke-linecap:square;stroke-linejoin:miter;stroke-width:0.8;"/>
   </g>
   <g id="patch_5">
    <path d="M 90.09 205.304612 
L 648.648 205.304612 
" style="fill:none;stroke:#000000;stroke-linecap:square;stroke-linejoin:miter;stroke-width:0.8;"/>
   </g>
   <g id="patch_6">
    <path d="M 90.09 71.1072 
L 648.648 71.1072 
" style="fill:none;stroke:#000000;stroke-linecap:square;stroke-linejoin:miter;stroke-width:0.8;"/>
   </g>
   <g id="legend_1">
    <g id="patch_7">
     <path d="M 546.46675 108.46345 
L 641.648 108.46345 
Q 643.648 108.46345 643.648 106.46345 
L 643.648 78.1072 
Q 643.648 76.1072 641.648 76.1072 
L 546.46675 76.1072 
Q 544.46675 76.1072 544.46675 78.1072 
L 544.46675 106.46345 
Q 544.46675 108.46345 546.46675 108.46345 
z
" style="fill:#ffffff;opacity:0.8;stroke:#cccccc;stroke-linejoin:miter;"/>
    </g>
    <g id="line2d_27">
     <path d="M 548.46675 84.205638 
L 568.46675 84.205638 
" style="fill:none;stroke:#e06666;stroke-linecap:square;stroke-width:3;"/>
    </g>
    <g id="line2d_28"/>
    <g id="text_13">
     <!-- ground truth -->
     <g transform="translate(576.46675 87.705638)scale(0.1 -0.1)">
      <defs>
       <path d="M 45.40625 27.984375 
Q 45.40625 37.75 41.375 43.109375 
Q 37.359375 48.484375 30.078125 48.484375 
Q 22.859375 48.484375 18.828125 43.109375 
Q 14.796875 37.75 14.796875 27.984375 
Q 14.796875 18.265625 18.828125 12.890625 
Q 22.859375 7.515625 30.078125 7.515625 
Q 37.359375 7.515625 41.375 12.890625 
Q 45.40625 18.265625 45.40625 27.984375 
z
M 54.390625 6.78125 
Q 54.390625 -7.171875 48.1875 -13.984375 
Q 42 -20.796875 29.203125 -20.796875 
Q 24.46875 -20.796875 20.265625 -20.09375 
Q 16.0625 -19.390625 12.109375 -17.921875 
L 12.109375 -9.1875 
Q 16.0625 -11.328125 19.921875 -12.34375 
Q 23.78125 -13.375 27.78125 -13.375 
Q 36.625 -13.375 41.015625 -8.765625 
Q 45.40625 -4.15625 45.40625 5.171875 
L 45.40625 9.625 
Q 42.625 4.78125 38.28125 2.390625 
Q 33.9375 0 27.875 0 
Q 17.828125 0 11.671875 7.65625 
Q 5.515625 15.328125 5.515625 27.984375 
Q 5.515625 40.671875 11.671875 48.328125 
Q 17.828125 56 27.875 56 
Q 33.9375 56 38.28125 53.609375 
Q 42.625 51.21875 45.40625 46.390625 
L 45.40625 54.6875 
L 54.390625 54.6875 
z
" id="DejaVuSans-103"/>
       <path d="M 41.109375 46.296875 
Q 39.59375 47.171875 37.8125 47.578125 
Q 36.03125 48 33.890625 48 
Q 26.265625 48 22.1875 43.046875 
Q 18.109375 38.09375 18.109375 28.8125 
L 18.109375 0 
L 9.078125 0 
L 9.078125 54.6875 
L 18.109375 54.6875 
L 18.109375 46.1875 
Q 20.953125 51.171875 25.484375 53.578125 
Q 30.03125 56 36.53125 56 
Q 37.453125 56 38.578125 55.875 
Q 39.703125 55.765625 41.0625 55.515625 
z
" id="DejaVuSans-114"/>
       <path d="M 30.609375 48.390625 
Q 23.390625 48.390625 19.1875 42.75 
Q 14.984375 37.109375 14.984375 27.296875 
Q 14.984375 17.484375 19.15625 11.84375 
Q 23.34375 6.203125 30.609375 6.203125 
Q 37.796875 6.203125 41.984375 11.859375 
Q 46.1875 17.53125 46.1875 27.296875 
Q 46.1875 37.015625 41.984375 42.703125 
Q 37.796875 48.390625 30.609375 48.390625 
z
M 30.609375 56 
Q 42.328125 56 49.015625 48.375 
Q 55.71875 40.765625 55.71875 27.296875 
Q 55.71875 13.875 49.015625 6.21875 
Q 42.328125 -1.421875 30.609375 -1.421875 
Q 18.84375 -1.421875 12.171875 6.21875 
Q 5.515625 13.875 5.515625 27.296875 
Q 5.515625 40.765625 12.171875 48.375 
Q 18.84375 56 30.609375 56 
z
" id="DejaVuSans-111"/>
       <path d="M 8.5 21.578125 
L 8.5 54.6875 
L 17.484375 54.6875 
L 17.484375 21.921875 
Q 17.484375 14.15625 20.5 10.265625 
Q 23.53125 6.390625 29.59375 6.390625 
Q 36.859375 6.390625 41.078125 11.03125 
Q 45.3125 15.671875 45.3125 23.6875 
L 45.3125 54.6875 
L 54.296875 54.6875 
L 54.296875 0 
L 45.3125 0 
L 45.3125 8.40625 
Q 42.046875 3.421875 37.71875 1 
Q 33.40625 -1.421875 27.6875 -1.421875 
Q 18.265625 -1.421875 13.375 4.4375 
Q 8.5 10.296875 8.5 21.578125 
z
M 31.109375 56 
z
" id="DejaVuSans-117"/>
       <path d="M 54.890625 33.015625 
L 54.890625 0 
L 45.90625 0 
L 45.90625 32.71875 
Q 45.90625 40.484375 42.875 44.328125 
Q 39.84375 48.1875 33.796875 48.1875 
Q 26.515625 48.1875 22.3125 43.546875 
Q 18.109375 38.921875 18.109375 30.90625 
L 18.109375 0 
L 9.078125 0 
L 9.078125 54.6875 
L 18.109375 54.6875 
L 18.109375 46.1875 
Q 21.34375 51.125 25.703125 53.5625 
Q 30.078125 56 35.796875 56 
Q 45.21875 56 50.046875 50.171875 
Q 54.890625 44.34375 54.890625 33.015625 
z
" id="DejaVuSans-110"/>
       <path d="M 45.40625 46.390625 
L 45.40625 75.984375 
L 54.390625 75.984375 
L 54.390625 0 
L 45.40625 0 
L 45.40625 8.203125 
Q 42.578125 3.328125 38.25 0.953125 
Q 33.9375 -1.421875 27.875 -1.421875 
Q 17.96875 -1.421875 11.734375 6.484375 
Q 5.515625 14.40625 5.515625 27.296875 
Q 5.515625 40.1875 11.734375 48.09375 
Q 17.96875 56 27.875 56 
Q 33.9375 56 38.25 53.625 
Q 42.578125 51.265625 45.40625 46.390625 
z
M 14.796875 27.296875 
Q 14.796875 17.390625 18.875 11.75 
Q 22.953125 6.109375 30.078125 6.109375 
Q 37.203125 6.109375 41.296875 11.75 
Q 45.40625 17.390625 45.40625 27.296875 
Q 45.40625 37.203125 41.296875 42.84375 
Q 37.203125 48.484375 30.078125 48.484375 
Q 22.953125 48.484375 18.875 42.84375 
Q 14.796875 37.203125 14.796875 27.296875 
z
" id="DejaVuSans-100"/>
       <path id="DejaVuSans-32"/>
       <path d="M 18.3125 70.21875 
L 18.3125 54.6875 
L 36.8125 54.6875 
L 36.8125 47.703125 
L 18.3125 47.703125 
L 18.3125 18.015625 
Q 18.3125 11.328125 20.140625 9.421875 
Q 21.96875 7.515625 27.59375 7.515625 
L 36.8125 7.515625 
L 36.8125 0 
L 27.59375 0 
Q 17.1875 0 13.234375 3.875 
Q 9.28125 7.765625 9.28125 18.015625 
L 9.28125 47.703125 
L 2.6875 47.703125 
L 2.6875 54.6875 
L 9.28125 54.6875 
L 9.28125 70.21875 
z
" id="DejaVuSans-116"/>
       <path d="M 54.890625 33.015625 
L 54.890625 0 
L 45.90625 0 
L 45.90625 32.71875 
Q 45.90625 40.484375 42.875 44.328125 
Q 39.84375 48.1875 33.796875 48.1875 
Q 26.515625 48.1875 22.3125 43.546875 
Q 18.109375 38.921875 18.109375 30.90625 
L 18.109375 0 
L 9.078125 0 
L 9.078125 75.984375 
L 18.109375 75.984375 
L 18.109375 46.1875 
Q 21.34375 51.125 25.703125 53.5625 
Q 30.078125 56 35.796875 56 
Q 45.21875 56 50.046875 50.171875 
Q 54.890625 44.34375 54.890625 33.015625 
z
" id="DejaVuSans-104"/>
      </defs>
      <use xlink:href="#DejaVuSans-103"/>
      <use x="63.476562" xlink:href="#DejaVuSans-114"/>
      <use x="102.339844" xlink:href="#DejaVuSans-111"/>
      <use x="163.521484" xlink:href="#DejaVuSans-117"/>
      <use x="226.900391" xlink:href="#DejaVuSans-110"/>
      <use x="290.279297" xlink:href="#DejaVuSans-100"/>
      <use x="353.755859" xlink:href="#DejaVuSans-32"/>
      <use x="385.542969" xlink:href="#DejaVuSans-116"/>
      <use x="424.751953" xlink:href="#DejaVuSans-114"/>
      <use x="465.865234" xlink:href="#DejaVuSans-117"/>
      <use x="529.244141" xlink:href="#DejaVuSans-116"/>
      <use x="568.453125" xlink:href="#DejaVuSans-104"/>
     </g>
    </g>
    <g id="line2d_29">
     <path d="M 548.46675 98.883763 
L 568.46675 98.883763 
" style="fill:none;stroke:#4a86e8;stroke-dasharray:4.44,1.92;stroke-dashoffset:0;stroke-width:1.2;"/>
    </g>
    <g id="line2d_30"/>
    <g id="text_14">
     <!-- prediction -->
     <g transform="translate(576.46675 102.383763)scale(0.1 -0.1)">
      <defs>
       <path d="M 18.109375 8.203125 
L 18.109375 -20.796875 
L 9.078125 -20.796875 
L 9.078125 54.6875 
L 18.109375 54.6875 
L 18.109375 46.390625 
Q 20.953125 51.265625 25.265625 53.625 
Q 29.59375 56 35.59375 56 
Q 45.5625 56 51.78125 48.09375 
Q 58.015625 40.1875 58.015625 27.296875 
Q 58.015625 14.40625 51.78125 6.484375 
Q 45.5625 -1.421875 35.59375 -1.421875 
Q 29.59375 -1.421875 25.265625 0.953125 
Q 20.953125 3.328125 18.109375 8.203125 
z
M 48.6875 27.296875 
Q 48.6875 37.203125 44.609375 42.84375 
Q 40.53125 48.484375 33.40625 48.484375 
Q 26.265625 48.484375 22.1875 42.84375 
Q 18.109375 37.203125 18.109375 27.296875 
Q 18.109375 17.390625 22.1875 11.75 
Q 26.265625 6.109375 33.40625 6.109375 
Q 40.53125 6.109375 44.609375 11.75 
Q 48.6875 17.390625 48.6875 27.296875 
z
" id="DejaVuSans-112"/>
       <path d="M 56.203125 29.59375 
L 56.203125 25.203125 
L 14.890625 25.203125 
Q 15.484375 15.921875 20.484375 11.0625 
Q 25.484375 6.203125 34.421875 6.203125 
Q 39.59375 6.203125 44.453125 7.46875 
Q 49.3125 8.734375 54.109375 11.28125 
L 54.109375 2.78125 
Q 49.265625 0.734375 44.1875 -0.34375 
Q 39.109375 -1.421875 33.890625 -1.421875 
Q 20.796875 -1.421875 13.15625 6.1875 
Q 5.515625 13.8125 5.515625 26.8125 
Q 5.515625 40.234375 12.765625 48.109375 
Q 20.015625 56 32.328125 56 
Q 43.359375 56 49.78125 48.890625 
Q 56.203125 41.796875 56.203125 29.59375 
z
M 47.21875 32.234375 
Q 47.125 39.59375 43.09375 43.984375 
Q 39.0625 48.390625 32.421875 48.390625 
Q 24.90625 48.390625 20.390625 44.140625 
Q 15.875 39.890625 15.1875 32.171875 
z
" id="DejaVuSans-101"/>
       <path d="M 9.421875 54.6875 
L 18.40625 54.6875 
L 18.40625 0 
L 9.421875 0 
z
M 9.421875 75.984375 
L 18.40625 75.984375 
L 18.40625 64.59375 
L 9.421875 64.59375 
z
" id="DejaVuSans-105"/>
       <path d="M 48.78125 52.59375 
L 48.78125 44.1875 
Q 44.96875 46.296875 41.140625 47.34375 
Q 37.3125 48.390625 33.40625 48.390625 
Q 24.65625 48.390625 19.8125 42.84375 
Q 14.984375 37.3125 14.984375 27.296875 
Q 14.984375 17.28125 19.8125 11.734375 
Q 24.65625 6.203125 33.40625 6.203125 
Q 37.3125 6.203125 41.140625 7.25 
Q 44.96875 8.296875 48.78125 10.40625 
L 48.78125 2.09375 
Q 45.015625 0.34375 40.984375 -0.53125 
Q 36.96875 -1.421875 32.421875 -1.421875 
Q 20.0625 -1.421875 12.78125 6.34375 
Q 5.515625 14.109375 5.515625 27.296875 
Q 5.515625 40.671875 12.859375 48.328125 
Q 20.21875 56 33.015625 56 
Q 37.15625 56 41.109375 55.140625 
Q 45.0625 54.296875 48.78125 52.59375 
z
" id="DejaVuSans-99"/>
      </defs>
      <use xlink:href="#DejaVuSans-112"/>
      <use x="63.476562" xlink:href="#DejaVuSans-114"/>
      <use x="102.339844" xlink:href="#DejaVuSans-101"/>
      <use x="163.863281" xlink:href="#DejaVuSans-100"/>
      <use x="227.339844" xlink:href="#DejaVuSans-105"/>
      <use x="255.123047" xlink:href="#DejaVuSans-99"/>
      <use x="310.103516" xlink:href="#DejaVuSans-116"/>
      <use x="349.3125" xlink:href="#DejaVuSans-105"/>
      <use x="377.095703" xlink:href="#DejaVuSans-111"/>
      <use x="438.277344" xlink:href="#DejaVuSans-110"/>
     </g>
    </g>
   </g>
  </g>
  <g id="axes_2">
   <g id="patch_8">
    <path d="M 90.09 366.341506 
L 648.648 366.341506 
L 648.648 232.144094 
L 90.09 232.144094 
z
" style="fill:#ffffff;"/>
   </g>
   <g id="matplotlib.axis_3">
    <g id="xtick_10">
     <g id="line2d_31">
      <path clip-path="url(#paa616f73c9)" d="M 112.9401 366.341506 
L 112.9401 232.144094 
" style="fill:none;stroke:#b0b0b0;stroke-linecap:square;stroke-width:0.8;"/>
     </g>
     <g id="line2d_32">
      <g>
       <use style="stroke:#000000;stroke-width:0.8;" x="112.9401" xlink:href="#m5d6f85c63d" y="366.341506"/>
      </g>
     </g>
     <g id="text_15">
      <!-- 0 -->
      <g transform="translate(109.75885 380.939943)scale(0.1 -0.1)">
       <use xlink:href="#DejaVuSans-48"/>
      </g>
     </g>
    </g>
    <g id="xtick_11">
     <g id="line2d_33">
      <path clip-path="url(#paa616f73c9)" d="M 176.4126 366.341506 
L 176.4126 232.144094 
" style="fill:none;stroke:#b0b0b0;stroke-linecap:square;stroke-width:0.8;"/>
     </g>
     <g id="line2d_34">
      <g>
       <use style="stroke:#000000;stroke-width:0.8;" x="176.4126" xlink:href="#m5d6f85c63d" y="366.341506"/>
      </g>
     </g>
     <g id="text_16">
      <!-- 25 -->
      <g transform="translate(170.0501 380.939943)scale(0.1 -0.1)">
       <use xlink:href="#DejaVuSans-50"/>
       <use x="63.623047" xlink:href="#DejaVuSans-53"/>
      </g>
     </g>
    </g>
    <g id="xtick_12">
     <g id="line2d_35">
      <path clip-path="url(#paa616f73c9)" d="M 239.8851 366.341506 
L 239.8851 232.144094 
" style="fill:none;stroke:#b0b0b0;stroke-linecap:square;stroke-width:0.8;"/>
     </g>
     <g id="line2d_36">
      <g>
       <use style="stroke:#000000;stroke-width:0.8;" x="239.8851" xlink:href="#m5d6f85c63d" y="366.341506"/>
      </g>
     </g>
     <g id="text_17">
      <!-- 50 -->
      <g transform="translate(233.5226 380.939943)scale(0.1 -0.1)">
       <use xlink:href="#DejaVuSans-53"/>
       <use x="63.623047" xlink:href="#DejaVuSans-48"/>
      </g>
     </g>
    </g>
    <g id="xtick_13">
     <g id="line2d_37">
      <path clip-path="url(#paa616f73c9)" d="M 303.3576 366.341506 
L 303.3576 232.144094 
" style="fill:none;stroke:#b0b0b0;stroke-linecap:square;stroke-width:0.8;"/>
     </g>
     <g id="line2d_38">
      <g>
       <use style="stroke:#000000;stroke-width:0.8;" x="303.3576" xlink:href="#m5d6f85c63d" y="366.341506"/>
      </g>
     </g>
     <g id="text_18">
      <!-- 75 -->
      <g transform="translate(296.9951 380.939943)scale(0.1 -0.1)">
       <use xlink:href="#DejaVuSans-55"/>
       <use x="63.623047" xlink:href="#DejaVuSans-53"/>
      </g>
     </g>
    </g>
    <g id="xtick_14">
     <g id="line2d_39">
      <path clip-path="url(#paa616f73c9)" d="M 366.8301 366.341506 
L 366.8301 232.144094 
" style="fill:none;stroke:#b0b0b0;stroke-linecap:square;stroke-width:0.8;"/>
     </g>
     <g id="line2d_40">
      <g>
       <use style="stroke:#000000;stroke-width:0.8;" x="366.8301" xlink:href="#m5d6f85c63d" y="366.341506"/>
      </g>
     </g>
     <g id="text_19">
      <!-- 100 -->
      <g transform="translate(357.28635 380.939943)scale(0.1 -0.1)">
       <use xlink:href="#DejaVuSans-49"/>
       <use x="63.623047" xlink:href="#DejaVuSans-48"/>
       <use x="127.246094" xlink:href="#DejaVuSans-48"/>
      </g>
     </g>
    </g>
    <g id="xtick_15">
     <g id="line2d_41">
      <path clip-path="url(#paa616f73c9)" d="M 430.3026 366.341506 
L 430.3026 232.144094 
" style="fill:none;stroke:#b0b0b0;stroke-linecap:square;stroke-width:0.8;"/>
     </g>
     <g id="line2d_42">
      <g>
       <use style="stroke:#000000;stroke-width:0.8;" x="430.3026" xlink:href="#m5d6f85c63d" y="366.341506"/>
      </g>
     </g>
     <g id="text_20">
      <!-- 125 -->
      <g transform="translate(420.75885 380.939943)scale(0.1 -0.1)">
       <use xlink:href="#DejaVuSans-49"/>
       <use x="63.623047" xlink:href="#DejaVuSans-50"/>
       <use x="127.246094" xlink:href="#DejaVuSans-53"/>
      </g>
     </g>
    </g>
    <g id="xtick_16">
     <g id="line2d_43">
      <path clip-path="url(#paa616f73c9)" d="M 493.7751 366.341506 
L 493.7751 232.144094 
" style="fill:none;stroke:#b0b0b0;stroke-linecap:square;stroke-width:0.8;"/>
     </g>
     <g id="line2d_44">
      <g>
       <use style="stroke:#000000;stroke-width:0.8;" x="493.7751" xlink:href="#m5d6f85c63d" y="366.341506"/>
      </g>
     </g>
     <g id="text_21">
      <!-- 150 -->
      <g transform="translate(484.23135 380.939943)scale(0.1 -0.1)">
       <use xlink:href="#DejaVuSans-49"/>
       <use x="63.623047" xlink:href="#DejaVuSans-53"/>
       <use x="127.246094" xlink:href="#DejaVuSans-48"/>
      </g>
     </g>
    </g>
    <g id="xtick_17">
     <g id="line2d_45">
      <path clip-path="url(#paa616f73c9)" d="M 557.2476 366.341506 
L 557.2476 232.144094 
" style="fill:none;stroke:#b0b0b0;stroke-linecap:square;stroke-width:0.8;"/>
     </g>
     <g id="line2d_46">
      <g>
       <use style="stroke:#000000;stroke-width:0.8;" x="557.2476" xlink:href="#m5d6f85c63d" y="366.341506"/>
      </g>
     </g>
     <g id="text_22">
      <!-- 175 -->
      <g transform="translate(547.70385 380.939943)scale(0.1 -0.1)">
       <use xlink:href="#DejaVuSans-49"/>
       <use x="63.623047" xlink:href="#DejaVuSans-55"/>
       <use x="127.246094" xlink:href="#DejaVuSans-53"/>
      </g>
     </g>
    </g>
    <g id="xtick_18">
     <g id="line2d_47">
      <path clip-path="url(#paa616f73c9)" d="M 620.7201 366.341506 
L 620.7201 232.144094 
" style="fill:none;stroke:#b0b0b0;stroke-linecap:square;stroke-width:0.8;"/>
     </g>
     <g id="line2d_48">
      <g>
       <use style="stroke:#000000;stroke-width:0.8;" x="620.7201" xlink:href="#m5d6f85c63d" y="366.341506"/>
      </g>
     </g>
     <g id="text_23">
      <!-- 200 -->
      <g transform="translate(611.17635 380.939943)scale(0.1 -0.1)">
       <use xlink:href="#DejaVuSans-50"/>
       <use x="63.623047" xlink:href="#DejaVuSans-48"/>
       <use x="127.246094" xlink:href="#DejaVuSans-48"/>
      </g>
     </g>
    </g>
   </g>
   <g id="matplotlib.axis_4">
    <g id="ytick_4">
     <g id="line2d_49">
      <path clip-path="url(#paa616f73c9)" d="M 90.09 338.68274 
L 648.648 338.68274 
" style="fill:none;stroke:#b0b0b0;stroke-linecap:square;stroke-width:0.8;"/>
     </g>
     <g id="line2d_50">
      <g>
       <use style="stroke:#000000;stroke-width:0.8;" x="90.09" xlink:href="#m7e0ec8b29d" y="338.68274"/>
      </g>
     </g>
     <g id="text_24">
      <!-- −0.2 -->
      <g transform="translate(58.807187 342.481959)scale(0.1 -0.1)">
       <use xlink:href="#DejaVuSans-8722"/>
       <use x="83.789062" xlink:href="#DejaVuSans-48"/>
       <use x="147.412109" xlink:href="#DejaVuSans-46"/>
       <use x="179.199219" xlink:href="#DejaVuSans-50"/>
      </g>
     </g>
    </g>
    <g id="ytick_5">
     <g id="line2d_51">
      <path clip-path="url(#paa616f73c9)" d="M 90.09 310.047665 
L 648.648 310.047665 
" style="fill:none;stroke:#b0b0b0;stroke-linecap:square;stroke-width:0.8;"/>
     </g>
     <g id="line2d_52">
      <g>
       <use style="stroke:#000000;stroke-width:0.8;" x="90.09" xlink:href="#m7e0ec8b29d" y="310.047665"/>
      </g>
     </g>
     <g id="text_25">
      <!-- 0.0 -->
      <g transform="translate(67.186875 313.846884)scale(0.1 -0.1)">
       <use xlink:href="#DejaVuSans-48"/>
       <use x="63.623047" xlink:href="#DejaVuSans-46"/>
       <use x="95.410156" xlink:href="#DejaVuSans-48"/>
      </g>
     </g>
    </g>
    <g id="ytick_6">
     <g id="line2d_53">
      <path clip-path="url(#paa616f73c9)" d="M 90.09 281.412591 
L 648.648 281.412591 
" style="fill:none;stroke:#b0b0b0;stroke-linecap:square;stroke-width:0.8;"/>
     </g>
     <g id="line2d_54">
      <g>
       <use style="stroke:#000000;stroke-width:0.8;" x="90.09" xlink:href="#m7e0ec8b29d" y="281.412591"/>
      </g>
     </g>
     <g id="text_26">
      <!-- 0.2 -->
      <g transform="translate(67.186875 285.211809)scale(0.1 -0.1)">
       <use xlink:href="#DejaVuSans-48"/>
       <use x="63.623047" xlink:href="#DejaVuSans-46"/>
       <use x="95.410156" xlink:href="#DejaVuSans-50"/>
      </g>
     </g>
    </g>
    <g id="ytick_7">
     <g id="line2d_55">
      <path clip-path="url(#paa616f73c9)" d="M 90.09 252.777516 
L 648.648 252.777516 
" style="fill:none;stroke:#b0b0b0;stroke-linecap:square;stroke-width:0.8;"/>
     </g>
     <g id="line2d_56">
      <g>
       <use style="stroke:#000000;stroke-width:0.8;" x="90.09" xlink:href="#m7e0ec8b29d" y="252.777516"/>
      </g>
     </g>
     <g id="text_27">
      <!-- 0.4 -->
      <g transform="translate(67.186875 256.576735)scale(0.1 -0.1)">
       <defs>
        <path d="M 37.796875 64.3125 
L 12.890625 25.390625 
L 37.796875 25.390625 
z
M 35.203125 72.90625 
L 47.609375 72.90625 
L 47.609375 25.390625 
L 58.015625 25.390625 
L 58.015625 17.1875 
L 47.609375 17.1875 
L 47.609375 0 
L 37.796875 0 
L 37.796875 17.1875 
L 4.890625 17.1875 
L 4.890625 26.703125 
z
" id="DejaVuSans-52"/>
       </defs>
       <use xlink:href="#DejaVuSans-48"/>
       <use x="63.623047" xlink:href="#DejaVuSans-46"/>
       <use x="95.410156" xlink:href="#DejaVuSans-52"/>
      </g>
     </g>
    </g>
   </g>
   <g id="line2d_57">
    <path clip-path="url(#paa616f73c9)" d="M 115.479 254.644474 
L 118.0179 253.58441 
L 120.5568 253.381948 
L 123.0957 256.371887 
L 125.6346 261.832265 
L 128.1735 272.824337 
L 130.7124 284.924748 
L 133.2513 292.495146 
L 135.7902 290.658456 
L 138.3291 287.753442 
L 140.868 287.984002 
L 143.4069 291.182451 
L 148.4847 298.316401 
L 151.0236 299.326734 
L 153.5625 301.035477 
L 156.1014 302.595553 
L 158.6403 303.440987 
L 173.8737 307.286314 
L 178.9515 307.984097 
L 184.0293 308.314454 
L 189.1071 308.226296 
L 196.7238 307.717311 
L 199.2627 307.793714 
L 201.8016 308.516875 
L 204.3405 310.115774 
L 206.8794 312.310837 
L 209.4183 315.02609 
L 214.4961 321.001689 
L 217.035 322.458572 
L 219.5739 324.309649 
L 222.1128 326.442276 
L 224.6517 329.028674 
L 227.1906 330.848715 
L 229.7295 331.636302 
L 232.2684 331.391765 
L 234.8073 330.235972 
L 237.3462 327.97022 
L 239.8851 323.057174 
L 242.424 320.672833 
L 244.9629 332.998967 
L 247.5018 354.266355 
L 250.0407 360.164003 
L 252.5796 341.203293 
L 255.1185 323.150031 
L 257.6574 324.057736 
L 260.1963 326.81316 
L 262.7352 321.496054 
L 265.2741 326.67878 
L 267.813 326.385627 
L 270.3519 327.34068 
L 272.8908 326.442784 
L 275.4297 323.53567 
L 277.9686 320.108022 
L 280.5075 317.921576 
L 283.0464 315.139089 
L 285.5853 312.988747 
L 288.1242 310.466152 
L 290.6631 308.706744 
L 293.202 308.355033 
L 295.7409 308.784039 
L 298.2798 309.491692 
L 300.8187 310.731413 
L 303.3576 310.842915 
L 305.8965 309.113493 
L 308.4354 306.54599 
L 310.9743 303.690701 
L 313.5132 301.716092 
L 316.0521 301.044711 
L 318.591 299.110499 
L 321.1299 298.621406 
L 323.6688 298.705282 
L 328.7466 299.056095 
L 331.2855 297.967468 
L 333.8244 295.899184 
L 336.3633 294.817456 
L 338.9022 292.236704 
L 341.4411 290.080972 
L 343.98 289.121602 
L 346.5189 287.091984 
L 349.0578 284.315 
L 351.5967 281.284828 
L 354.1356 277.726411 
L 356.6745 273.439274 
L 359.2134 268.68434 
L 361.7523 263.179373 
L 364.2912 259.697883 
L 369.369 251.638198 
L 371.9079 251.491934 
L 374.4468 251.532499 
L 376.9857 253.097009 
L 379.5246 260.148814 
L 382.0635 273.993287 
L 384.6024 286.273262 
L 387.1413 295.845093 
L 389.6802 294.031515 
L 392.2191 287.512129 
L 394.758 283.756963 
L 397.2969 285.275813 
L 399.8358 289.698152 
L 402.3747 294.915029 
L 407.4525 300.010641 
L 409.9914 301.866191 
L 412.5303 303.315622 
L 415.0692 304.597213 
L 417.6081 305.72442 
L 420.147 306.657861 
L 422.6859 307.370494 
L 425.2248 307.864198 
L 427.7637 308.167992 
L 432.8415 308.38592 
L 437.9193 308.298092 
L 440.4582 308.07783 
L 442.9971 307.719841 
L 450.6138 306.187979 
L 453.1527 305.966478 
L 455.6916 307.040908 
L 458.2305 309.173888 
L 460.7694 312.224127 
L 465.8472 319.648882 
L 468.3861 320.564615 
L 470.925 322.156392 
L 473.4639 324.828367 
L 476.0028 328.082209 
L 478.5417 330.390594 
L 481.0806 331.727812 
L 483.6195 332.065325 
L 486.1584 331.382952 
L 488.6973 329.667836 
L 491.2362 326.852542 
L 493.7751 323.322539 
L 496.314 325.461291 
L 498.8529 342.753096 
L 501.3918 359.046351 
L 503.9307 354.249849 
L 506.4696 331.286992 
L 509.0085 316.352574 
L 511.5474 323.377207 
L 514.0863 329.277953 
L 516.6252 321.831096 
L 519.1641 327.355475 
L 521.703 326.915538 
L 524.2419 325.666739 
L 526.7808 322.878355 
L 529.3197 319.100992 
L 531.8586 316.483902 
L 534.3975 314.953901 
L 536.9364 311.919405 
L 539.4753 309.39544 
L 542.0142 307.439208 
L 544.5531 306.538722 
L 547.092 307.227122 
L 549.6309 308.203348 
L 552.1698 307.224845 
L 554.7087 306.114792 
L 557.2476 304.777508 
L 559.7865 301.857029 
L 562.3254 300.378433 
L 564.8643 299.111357 
L 567.4032 297.396007 
L 569.9421 296.381384 
L 572.481 296.229944 
L 575.0199 296.482569 
L 577.5588 297.01018 
L 585.1755 296.833284 
L 587.7144 293.334386 
L 590.2533 288.473133 
L 592.7922 285.500538 
L 595.3311 283.864395 
L 597.87 282.578 
L 600.4089 281.511815 
L 602.9478 278.866753 
L 608.0256 271.022544 
L 610.5645 267.225811 
L 613.1034 263.087462 
L 615.6423 259.248746 
L 618.1812 255.117304 
L 623.259 249.643984 
L 623.259 249.643984 
" style="fill:none;stroke:#e06666;stroke-linecap:square;stroke-width:3;"/>
   </g>
   <g id="line2d_58">
    <path clip-path="url(#paa616f73c9)" d="M 115.479 269.69831 
L 118.0179 248.155959 
L 120.5568 244.89206 
L 123.0957 239.572208 
L 128.1735 254.716737 
L 130.7124 269.773059 
L 133.2513 285.938391 
L 135.7902 296.381689 
L 138.3291 303.321087 
L 140.868 303.031405 
L 143.4069 304.277295 
L 145.9458 299.237297 
L 148.4847 300.767973 
L 151.0236 305.023561 
L 153.5625 305.482735 
L 156.1014 304.530799 
L 158.6403 303.712423 
L 161.1792 304.528925 
L 163.7181 303.923912 
L 166.257 304.065719 
L 168.7959 303.733539 
L 171.3348 302.431529 
L 173.8737 304.219845 
L 176.4126 304.449625 
L 178.9515 303.569294 
L 181.4904 306.136181 
L 184.0293 303.408857 
L 186.5682 305.203283 
L 189.1071 303.697256 
L 191.646 304.966833 
L 196.7238 306.897563 
L 199.2627 306.209695 
L 201.8016 307.341638 
L 204.3405 308.639563 
L 206.8794 311.329343 
L 209.4183 316.715512 
L 211.9572 325.340412 
L 214.4961 332.848829 
L 217.035 341.762962 
L 219.5739 341.314219 
L 222.1128 347.526688 
L 224.6517 347.358229 
L 227.1906 343.147577 
L 229.7295 347.248581 
L 232.2684 349.510722 
L 234.8073 342.654443 
L 237.3462 336.307024 
L 239.8851 325.813853 
L 242.424 327.710956 
L 244.9629 340.474592 
L 247.5018 355.168052 
L 250.0407 352.658649 
L 252.5796 330.367471 
L 255.1185 321.010213 
L 257.6574 321.014082 
L 260.1963 321.160538 
L 262.7352 318.841826 
L 265.2741 318.353517 
L 267.813 316.364018 
L 270.3519 314.731205 
L 272.8908 312.032682 
L 275.4297 316.966386 
L 277.9686 318.916264 
L 280.5075 314.527196 
L 283.0464 310.951785 
L 285.5853 310.112434 
L 288.1242 310.252547 
L 290.6631 305.608028 
L 293.202 306.922654 
L 295.7409 305.745426 
L 298.2798 304.983809 
L 300.8187 306.994027 
L 303.3576 305.873367 
L 305.8965 304.04045 
L 308.4354 304.818585 
L 310.9743 305.392626 
L 313.5132 301.077701 
L 316.0521 299.973936 
L 318.591 301.774518 
L 321.1299 298.399532 
L 323.6688 295.861589 
L 326.2077 287.920491 
L 328.7466 290.3126 
L 331.2855 288.857306 
L 333.8244 284.784652 
L 336.3633 285.312247 
L 338.9022 282.330899 
L 341.4411 283.226284 
L 343.98 280.720263 
L 346.5189 276.460514 
L 349.0578 273.666441 
L 351.5967 269.7392 
L 354.1356 267.733333 
L 356.6745 264.677094 
L 359.2134 263.391907 
L 361.7523 256.126228 
L 364.2912 250.7652 
L 366.8301 245.704481 
L 369.369 243.797022 
L 371.9079 247.157901 
L 374.4468 240.554078 
L 376.9857 241.810172 
L 379.5246 247.72847 
L 382.0635 258.481773 
L 384.6024 273.964398 
L 387.1413 288.629329 
L 389.6802 299.97434 
L 392.2191 303.668048 
L 394.758 299.996668 
L 397.2969 303.466863 
L 399.8358 302.715045 
L 402.3747 304.446651 
L 404.9136 304.687594 
L 407.4525 303.435626 
L 409.9914 305.134269 
L 412.5303 304.197827 
L 415.0692 304.573171 
L 417.6081 302.553791 
L 420.147 305.230735 
L 422.6859 304.048575 
L 425.2248 304.152007 
L 427.7637 304.856465 
L 430.3026 304.756657 
L 432.8415 305.16188 
L 435.3804 305.440405 
L 437.9193 305.986174 
L 440.4582 305.483202 
L 442.9971 305.418804 
L 445.536 306.959634 
L 448.0749 305.933457 
L 450.6138 307.978033 
L 453.1527 308.493877 
L 455.6916 309.618824 
L 458.2305 310.097831 
L 460.7694 311.466669 
L 463.3083 319.069233 
L 468.3861 326.401011 
L 470.925 330.523648 
L 473.4639 335.337417 
L 476.0028 337.849958 
L 478.5417 341.708445 
L 481.0806 337.651352 
L 483.6195 339.156731 
L 486.1584 340.016978 
L 488.6973 338.488641 
L 491.2362 338.293959 
L 493.7751 327.413427 
L 496.314 324.514481 
L 498.8529 323.629845 
L 501.3918 340.162272 
L 503.9307 358.229168 
L 506.4696 360.241624 
L 509.0085 332.061801 
L 511.5474 319.933895 
L 514.0863 323.474349 
L 516.6252 325.00532 
L 519.1641 317.805257 
L 521.703 317.488306 
L 524.2419 319.25105 
L 526.7808 315.603972 
L 529.3197 320.516169 
L 531.8586 319.183153 
L 534.3975 317.136797 
L 536.9364 317.956495 
L 539.4753 317.036476 
L 542.0142 312.687627 
L 544.5531 307.844585 
L 547.092 307.021331 
L 549.6309 307.810801 
L 552.1698 309.55772 
L 554.7087 309.589071 
L 557.2476 302.915098 
L 559.7865 304.715898 
L 562.3254 302.055686 
L 564.8643 298.677815 
L 567.4032 297.012367 
L 569.9421 297.986326 
L 572.481 291.753099 
L 575.0199 294.233283 
L 577.5588 290.569671 
L 580.0977 291.252975 
L 582.6366 290.392727 
L 585.1755 289.656625 
L 587.7144 286.888724 
L 590.2533 288.43649 
L 592.7922 287.620893 
L 595.3311 284.935295 
L 597.87 279.850414 
L 600.4089 279.831405 
L 602.9478 275.071194 
L 605.4867 273.350874 
L 608.0256 270.434791 
L 610.5645 265.558631 
L 613.1034 256.194764 
L 615.6423 252.403849 
L 618.1812 247.934901 
L 620.7201 238.856259 
L 623.259 238.243976 
L 623.259 238.243976 
" style="fill:none;stroke:#4a86e8;stroke-dasharray:4.44,1.92;stroke-dashoffset:0;stroke-width:1.2;"/>
   </g>
   <g id="patch_9">
    <path d="M 90.09 366.341506 
L 90.09 232.144094 
" style="fill:none;stroke:#000000;stroke-linecap:square;stroke-linejoin:miter;stroke-width:0.8;"/>
   </g>
   <g id="patch_10">
    <path d="M 648.648 366.341506 
L 648.648 232.144094 
" style="fill:none;stroke:#000000;stroke-linecap:square;stroke-linejoin:miter;stroke-width:0.8;"/>
   </g>
   <g id="patch_11">
    <path d="M 90.09 366.341506 
L 648.648 366.341506 
" style="fill:none;stroke:#000000;stroke-linecap:square;stroke-linejoin:miter;stroke-width:0.8;"/>
   </g>
   <g id="patch_12">
    <path d="M 90.09 232.144094 
L 648.648 232.144094 
" style="fill:none;stroke:#000000;stroke-linecap:square;stroke-linejoin:miter;stroke-width:0.8;"/>
   </g>
   <g id="legend_2">
    <g id="patch_13">
     <path d="M 546.46675 269.500344 
L 641.648 269.500344 
Q 643.648 269.500344 643.648 267.500344 
L 643.648 239.144094 
Q 643.648 237.144094 641.648 237.144094 
L 546.46675 237.144094 
Q 544.46675 237.144094 544.46675 239.144094 
L 544.46675 267.500344 
Q 544.46675 269.500344 546.46675 269.500344 
z
" style="fill:#ffffff;opacity:0.8;stroke:#cccccc;stroke-linejoin:miter;"/>
    </g>
    <g id="line2d_59">
     <path d="M 548.46675 245.242532 
L 568.46675 245.242532 
" style="fill:none;stroke:#e06666;stroke-linecap:square;stroke-width:3;"/>
    </g>
    <g id="line2d_60"/>
    <g id="text_28">
     <!-- ground truth -->
     <g transform="translate(576.46675 248.742532)scale(0.1 -0.1)">
      <use xlink:href="#DejaVuSans-103"/>
      <use x="63.476562" xlink:href="#DejaVuSans-114"/>
      <use x="102.339844" xlink:href="#DejaVuSans-111"/>
      <use x="163.521484" xlink:href="#DejaVuSans-117"/>
      <use x="226.900391" xlink:href="#DejaVuSans-110"/>
      <use x="290.279297" xlink:href="#DejaVuSans-100"/>
      <use x="353.755859" xlink:href="#DejaVuSans-32"/>
      <use x="385.542969" xlink:href="#DejaVuSans-116"/>
      <use x="424.751953" xlink:href="#DejaVuSans-114"/>
      <use x="465.865234" xlink:href="#DejaVuSans-117"/>
      <use x="529.244141" xlink:href="#DejaVuSans-116"/>
      <use x="568.453125" xlink:href="#DejaVuSans-104"/>
     </g>
    </g>
    <g id="line2d_61">
     <path d="M 548.46675 259.920657 
L 568.46675 259.920657 
" style="fill:none;stroke:#4a86e8;stroke-dasharray:4.44,1.92;stroke-dashoffset:0;stroke-width:1.2;"/>
    </g>
    <g id="line2d_62"/>
    <g id="text_29">
     <!-- prediction -->
     <g transform="translate(576.46675 263.420657)scale(0.1 -0.1)">
      <use xlink:href="#DejaVuSans-112"/>
      <use x="63.476562" xlink:href="#DejaVuSans-114"/>
      <use x="102.339844" xlink:href="#DejaVuSans-101"/>
      <use x="163.863281" xlink:href="#DejaVuSans-100"/>
      <use x="227.339844" xlink:href="#DejaVuSans-105"/>
      <use x="255.123047" xlink:href="#DejaVuSans-99"/>
      <use x="310.103516" xlink:href="#DejaVuSans-116"/>
      <use x="349.3125" xlink:href="#DejaVuSans-105"/>
      <use x="377.095703" xlink:href="#DejaVuSans-111"/>
      <use x="438.277344" xlink:href="#DejaVuSans-110"/>
     </g>
    </g>
   </g>
  </g>
  <g id="axes_3">
   <g id="patch_14">
    <path d="M 90.09 527.3784 
L 648.648 527.3784 
L 648.648 393.180988 
L 90.09 393.180988 
z
" style="fill:#ffffff;"/>
   </g>
   <g id="matplotlib.axis_5">
    <g id="xtick_19">
     <g id="line2d_63">
      <path clip-path="url(#pea46232294)" d="M 112.9401 527.3784 
L 112.9401 393.180988 
" style="fill:none;stroke:#b0b0b0;stroke-linecap:square;stroke-width:0.8;"/>
     </g>
     <g id="line2d_64">
      <g>
       <use style="stroke:#000000;stroke-width:0.8;" x="112.9401" xlink:href="#m5d6f85c63d" y="527.3784"/>
      </g>
     </g>
     <g id="text_30">
      <!-- 0 -->
      <g transform="translate(109.75885 541.976838)scale(0.1 -0.1)">
       <use xlink:href="#DejaVuSans-48"/>
      </g>
     </g>
    </g>
    <g id="xtick_20">
     <g id="line2d_65">
      <path clip-path="url(#pea46232294)" d="M 176.4126 527.3784 
L 176.4126 393.180988 
" style="fill:none;stroke:#b0b0b0;stroke-linecap:square;stroke-width:0.8;"/>
     </g>
     <g id="line2d_66">
      <g>
       <use style="stroke:#000000;stroke-width:0.8;" x="176.4126" xlink:href="#m5d6f85c63d" y="527.3784"/>
      </g>
     </g>
     <g id="text_31">
      <!-- 25 -->
      <g transform="translate(170.0501 541.976838)scale(0.1 -0.1)">
       <use xlink:href="#DejaVuSans-50"/>
       <use x="63.623047" xlink:href="#DejaVuSans-53"/>
      </g>
     </g>
    </g>
    <g id="xtick_21">
     <g id="line2d_67">
      <path clip-path="url(#pea46232294)" d="M 239.8851 527.3784 
L 239.8851 393.180988 
" style="fill:none;stroke:#b0b0b0;stroke-linecap:square;stroke-width:0.8;"/>
     </g>
     <g id="line2d_68">
      <g>
       <use style="stroke:#000000;stroke-width:0.8;" x="239.8851" xlink:href="#m5d6f85c63d" y="527.3784"/>
      </g>
     </g>
     <g id="text_32">
      <!-- 50 -->
      <g transform="translate(233.5226 541.976838)scale(0.1 -0.1)">
       <use xlink:href="#DejaVuSans-53"/>
       <use x="63.623047" xlink:href="#DejaVuSans-48"/>
      </g>
     </g>
    </g>
    <g id="xtick_22">
     <g id="line2d_69">
      <path clip-path="url(#pea46232294)" d="M 303.3576 527.3784 
L 303.3576 393.180988 
" style="fill:none;stroke:#b0b0b0;stroke-linecap:square;stroke-width:0.8;"/>
     </g>
     <g id="line2d_70">
      <g>
       <use style="stroke:#000000;stroke-width:0.8;" x="303.3576" xlink:href="#m5d6f85c63d" y="527.3784"/>
      </g>
     </g>
     <g id="text_33">
      <!-- 75 -->
      <g transform="translate(296.9951 541.976838)scale(0.1 -0.1)">
       <use xlink:href="#DejaVuSans-55"/>
       <use x="63.623047" xlink:href="#DejaVuSans-53"/>
      </g>
     </g>
    </g>
    <g id="xtick_23">
     <g id="line2d_71">
      <path clip-path="url(#pea46232294)" d="M 366.8301 527.3784 
L 366.8301 393.180988 
" style="fill:none;stroke:#b0b0b0;stroke-linecap:square;stroke-width:0.8;"/>
     </g>
     <g id="line2d_72">
      <g>
       <use style="stroke:#000000;stroke-width:0.8;" x="366.8301" xlink:href="#m5d6f85c63d" y="527.3784"/>
      </g>
     </g>
     <g id="text_34">
      <!-- 100 -->
      <g transform="translate(357.28635 541.976838)scale(0.1 -0.1)">
       <use xlink:href="#DejaVuSans-49"/>
       <use x="63.623047" xlink:href="#DejaVuSans-48"/>
       <use x="127.246094" xlink:href="#DejaVuSans-48"/>
      </g>
     </g>
    </g>
    <g id="xtick_24">
     <g id="line2d_73">
      <path clip-path="url(#pea46232294)" d="M 430.3026 527.3784 
L 430.3026 393.180988 
" style="fill:none;stroke:#b0b0b0;stroke-linecap:square;stroke-width:0.8;"/>
     </g>
     <g id="line2d_74">
      <g>
       <use style="stroke:#000000;stroke-width:0.8;" x="430.3026" xlink:href="#m5d6f85c63d" y="527.3784"/>
      </g>
     </g>
     <g id="text_35">
      <!-- 125 -->
      <g transform="translate(420.75885 541.976838)scale(0.1 -0.1)">
       <use xlink:href="#DejaVuSans-49"/>
       <use x="63.623047" xlink:href="#DejaVuSans-50"/>
       <use x="127.246094" xlink:href="#DejaVuSans-53"/>
      </g>
     </g>
    </g>
    <g id="xtick_25">
     <g id="line2d_75">
      <path clip-path="url(#pea46232294)" d="M 493.7751 527.3784 
L 493.7751 393.180988 
" style="fill:none;stroke:#b0b0b0;stroke-linecap:square;stroke-width:0.8;"/>
     </g>
     <g id="line2d_76">
      <g>
       <use style="stroke:#000000;stroke-width:0.8;" x="493.7751" xlink:href="#m5d6f85c63d" y="527.3784"/>
      </g>
     </g>
     <g id="text_36">
      <!-- 150 -->
      <g transform="translate(484.23135 541.976838)scale(0.1 -0.1)">
       <use xlink:href="#DejaVuSans-49"/>
       <use x="63.623047" xlink:href="#DejaVuSans-53"/>
       <use x="127.246094" xlink:href="#DejaVuSans-48"/>
      </g>
     </g>
    </g>
    <g id="xtick_26">
     <g id="line2d_77">
      <path clip-path="url(#pea46232294)" d="M 557.2476 527.3784 
L 557.2476 393.180988 
" style="fill:none;stroke:#b0b0b0;stroke-linecap:square;stroke-width:0.8;"/>
     </g>
     <g id="line2d_78">
      <g>
       <use style="stroke:#000000;stroke-width:0.8;" x="557.2476" xlink:href="#m5d6f85c63d" y="527.3784"/>
      </g>
     </g>
     <g id="text_37">
      <!-- 175 -->
      <g transform="translate(547.70385 541.976838)scale(0.1 -0.1)">
       <use xlink:href="#DejaVuSans-49"/>
       <use x="63.623047" xlink:href="#DejaVuSans-55"/>
       <use x="127.246094" xlink:href="#DejaVuSans-53"/>
      </g>
     </g>
    </g>
    <g id="xtick_27">
     <g id="line2d_79">
      <path clip-path="url(#pea46232294)" d="M 620.7201 527.3784 
L 620.7201 393.180988 
" style="fill:none;stroke:#b0b0b0;stroke-linecap:square;stroke-width:0.8;"/>
     </g>
     <g id="line2d_80">
      <g>
       <use style="stroke:#000000;stroke-width:0.8;" x="620.7201" xlink:href="#m5d6f85c63d" y="527.3784"/>
      </g>
     </g>
     <g id="text_38">
      <!-- 200 -->
      <g transform="translate(611.17635 541.976838)scale(0.1 -0.1)">
       <use xlink:href="#DejaVuSans-50"/>
       <use x="63.623047" xlink:href="#DejaVuSans-48"/>
       <use x="127.246094" xlink:href="#DejaVuSans-48"/>
      </g>
     </g>
    </g>
   </g>
   <g id="matplotlib.axis_6">
    <g id="ytick_8">
     <g id="line2d_81">
      <path clip-path="url(#pea46232294)" d="M 90.09 489.922699 
L 648.648 489.922699 
" style="fill:none;stroke:#b0b0b0;stroke-linecap:square;stroke-width:0.8;"/>
     </g>
     <g id="line2d_82">
      <g>
       <use style="stroke:#000000;stroke-width:0.8;" x="90.09" xlink:href="#m7e0ec8b29d" y="489.922699"/>
      </g>
     </g>
     <g id="text_39">
      <!-- 0.0 -->
      <g transform="translate(67.186875 493.721918)scale(0.1 -0.1)">
       <use xlink:href="#DejaVuSans-48"/>
       <use x="63.623047" xlink:href="#DejaVuSans-46"/>
       <use x="95.410156" xlink:href="#DejaVuSans-48"/>
      </g>
     </g>
    </g>
    <g id="ytick_9">
     <g id="line2d_83">
      <path clip-path="url(#pea46232294)" d="M 90.09 452.341111 
L 648.648 452.341111 
" style="fill:none;stroke:#b0b0b0;stroke-linecap:square;stroke-width:0.8;"/>
     </g>
     <g id="line2d_84">
      <g>
       <use style="stroke:#000000;stroke-width:0.8;" x="90.09" xlink:href="#m7e0ec8b29d" y="452.341111"/>
      </g>
     </g>
     <g id="text_40">
      <!-- 0.1 -->
      <g transform="translate(67.186875 456.14033)scale(0.1 -0.1)">
       <use xlink:href="#DejaVuSans-48"/>
       <use x="63.623047" xlink:href="#DejaVuSans-46"/>
       <use x="95.410156" xlink:href="#DejaVuSans-49"/>
      </g>
     </g>
    </g>
    <g id="ytick_10">
     <g id="line2d_85">
      <path clip-path="url(#pea46232294)" d="M 90.09 414.759523 
L 648.648 414.759523 
" style="fill:none;stroke:#b0b0b0;stroke-linecap:square;stroke-width:0.8;"/>
     </g>
     <g id="line2d_86">
      <g>
       <use style="stroke:#000000;stroke-width:0.8;" x="90.09" xlink:href="#m7e0ec8b29d" y="414.759523"/>
      </g>
     </g>
     <g id="text_41">
      <!-- 0.2 -->
      <g transform="translate(67.186875 418.558742)scale(0.1 -0.1)">
       <use xlink:href="#DejaVuSans-48"/>
       <use x="63.623047" xlink:href="#DejaVuSans-46"/>
       <use x="95.410156" xlink:href="#DejaVuSans-50"/>
      </g>
     </g>
    </g>
   </g>
   <g id="line2d_87">
    <path clip-path="url(#pea46232294)" d="M 115.479 501.725853 
L 118.0179 488.201615 
L 123.0957 454.24043 
L 125.6346 439.91 
L 128.1735 436.703751 
L 133.2513 451.087255 
L 135.7902 440.077998 
L 138.3291 425.555435 
L 140.868 420.442756 
L 143.4069 426.768546 
L 145.9458 436.826959 
L 148.4847 448.393138 
L 151.0236 452.000468 
L 153.5625 458.58875 
L 156.1014 464.821892 
L 158.6403 468.636173 
L 163.7181 474.810258 
L 166.257 477.742216 
L 168.7959 480.394452 
L 171.3348 482.628483 
L 173.8737 484.392815 
L 176.4126 485.724445 
L 178.9515 486.712689 
L 181.4904 487.454646 
L 184.0293 488.016484 
L 189.1071 488.741077 
L 194.1849 489.415825 
L 199.2627 490.187033 
L 201.8016 490.312491 
L 204.3405 489.897928 
L 206.8794 488.915803 
L 209.4183 487.445518 
L 214.4961 484.107852 
L 219.5739 482.757187 
L 222.1128 482.02902 
L 224.6517 481.097437 
L 227.1906 480.388449 
L 229.7295 479.875291 
L 232.2684 479.515619 
L 234.8073 479.342198 
L 237.3462 479.669192 
L 239.8851 481.760194 
L 242.424 482.634853 
L 244.9629 472.861533 
L 247.5018 454.660214 
L 250.0407 447.422412 
L 252.5796 461.979949 
L 255.1185 477.508304 
L 257.6574 475.856478 
L 260.1963 471.985684 
L 262.7352 476.783424 
L 265.2741 469.361901 
L 267.813 468.138146 
L 270.3519 465.132269 
L 272.8908 464.832659 
L 275.4297 468.122942 
L 277.9686 472.977425 
L 280.5075 476.307396 
L 283.0464 481.028737 
L 285.5853 484.816099 
L 288.1242 489.211488 
L 290.6631 492.120022 
L 293.202 492.565352 
L 295.7409 491.784618 
L 298.2798 490.692012 
L 300.8187 489.034809 
L 303.3576 488.946869 
L 305.8965 491.015884 
L 308.4354 493.887448 
L 310.9743 496.990637 
L 313.5132 499.132931 
L 316.0521 499.890709 
L 318.591 502.061857 
L 321.1299 502.564477 
L 323.6688 502.292911 
L 326.2077 501.71662 
L 328.7466 501.026092 
L 331.2855 501.359977 
L 333.8244 502.283283 
L 336.3633 502.06936 
L 338.9022 502.860431 
L 341.4411 503.254221 
L 343.98 503.049394 
L 346.5189 503.890475 
L 349.0578 505.641777 
L 351.5967 508.047911 
L 354.1356 511.19414 
L 359.2134 518.534165 
L 361.7523 521.278518 
L 364.2912 520.206116 
L 366.8301 515.918713 
L 369.369 506.880767 
L 371.9079 492.069864 
L 374.4468 473.508353 
L 376.9857 452.733447 
L 379.5246 436.641703 
L 382.0635 435.565421 
L 384.6024 443.487266 
L 387.1413 456.070357 
L 389.6802 445.429921 
L 392.2191 419.627213 
L 394.758 400.737597 
L 397.2969 401.059568 
L 399.8358 414.639565 
L 402.3747 433.476694 
L 407.4525 454.034595 
L 409.9914 461.987282 
L 412.5303 468.269867 
L 415.0692 473.59784 
L 417.6081 477.979472 
L 420.147 481.354864 
L 422.6859 483.77694 
L 425.2248 485.404617 
L 427.7637 486.448755 
L 430.3026 487.116952 
L 435.3804 487.924264 
L 445.536 489.112105 
L 448.0749 489.697445 
L 453.1527 491.257899 
L 455.6916 491.376952 
L 458.2305 490.451046 
L 460.7694 488.430835 
L 465.8472 482.988752 
L 470.925 482.379801 
L 473.4639 481.851682 
L 476.0028 481.492139 
L 478.5417 481.79469 
L 481.0806 482.277946 
L 483.6195 482.575169 
L 486.1584 482.54444 
L 488.6973 482.313655 
L 491.2362 482.275409 
L 493.7751 482.743164 
L 496.314 480.120016 
L 498.8529 465.910165 
L 501.3918 449.281635 
L 503.9307 449.337798 
L 506.4696 468.687514 
L 509.0085 483.138324 
L 514.0863 466.408177 
L 516.6252 474.620973 
L 519.1641 466.096821 
L 521.703 465.370175 
L 524.2419 465.987223 
L 526.7808 469.357403 
L 529.3197 474.875174 
L 531.8586 478.943833 
L 534.3975 481.433289 
L 536.9364 486.677551 
L 539.4753 491.041919 
L 542.0142 494.302939 
L 544.5531 495.632262 
L 547.092 494.336723 
L 549.6309 492.688483 
L 554.7087 495.351563 
L 557.2476 496.964503 
L 559.7865 500.609361 
L 562.3254 502.349042 
L 564.8643 503.854628 
L 567.4032 505.937184 
L 569.9421 507.066264 
L 572.481 506.966514 
L 575.0199 506.168464 
L 577.5588 504.831177 
L 580.0977 503.97158 
L 582.6366 502.915018 
L 585.1755 501.536473 
L 587.7144 502.834046 
L 590.2533 504.381174 
L 592.7922 504.164992 
L 595.3311 503.27805 
L 597.87 502.693758 
L 600.4089 502.671385 
L 602.9478 504.079003 
L 605.4867 506.854181 
L 608.0256 510.217161 
L 613.1034 517.337186 
L 615.6423 519.473239 
L 618.1812 519.543883 
L 620.7201 515.565625 
L 623.259 507.515696 
L 623.259 507.515696 
" style="fill:none;stroke:#e06666;stroke-linecap:square;stroke-width:3;"/>
   </g>
   <g id="line2d_88">
    <path clip-path="url(#pea46232294)" d="M 115.479 499.391425 
L 118.0179 480.562959 
L 123.0957 438.717616 
L 125.6346 421.192187 
L 128.1735 423.019066 
L 130.7124 434.458129 
L 133.2513 461.509535 
L 135.7902 475.243909 
L 138.3291 489.978588 
L 140.868 500.343608 
L 143.4069 494.238148 
L 145.9458 495.82452 
L 148.4847 490.475908 
L 151.0236 491.469665 
L 153.5625 488.861156 
L 156.1014 490.609703 
L 158.6403 486.389225 
L 161.1792 489.66684 
L 163.7181 484.238579 
L 166.257 485.592094 
L 168.7959 480.619244 
L 171.3348 485.917787 
L 173.8737 481.519088 
L 176.4126 481.972447 
L 178.9515 477.509866 
L 181.4904 484.414693 
L 184.0293 484.89079 
L 186.5682 482.579563 
L 189.1071 484.626858 
L 191.646 482.673063 
L 194.1849 484.416155 
L 196.7238 482.865125 
L 199.2627 476.204731 
L 201.8016 478.660125 
L 204.3405 479.096475 
L 206.8794 481.388624 
L 209.4183 482.363152 
L 211.9572 473.905708 
L 214.4961 467.257199 
L 217.035 463.412299 
L 219.5739 451.569115 
L 222.1128 456.2653 
L 224.6517 458.358478 
L 227.1906 454.843092 
L 229.7295 463.976542 
L 232.2684 466.48735 
L 234.8073 466.92485 
L 237.3462 471.453958 
L 239.8851 474.066757 
L 242.424 481.683228 
L 244.9629 478.119802 
L 247.5018 478.282224 
L 250.0407 468.502273 
L 252.5796 462.389775 
L 255.1185 469.830935 
L 257.6574 481.887328 
L 260.1963 481.783822 
L 262.7352 476.247558 
L 265.2741 486.189775 
L 267.813 482.058683 
L 270.3519 489.410228 
L 272.8908 497.437059 
L 275.4297 493.605205 
L 277.9686 492.687067 
L 280.5075 496.169195 
L 283.0464 493.650698 
L 285.5853 497.584099 
L 288.1242 496.935518 
L 290.6631 495.473282 
L 293.202 494.995835 
L 295.7409 496.033519 
L 298.2798 494.628404 
L 300.8187 502.471526 
L 303.3576 503.463174 
L 305.8965 502.432516 
L 308.4354 500.93184 
L 310.9743 502.265149 
L 313.5132 507.400466 
L 316.0521 510.739702 
L 318.591 501.802787 
L 321.1299 502.617358 
L 323.6688 498.79951 
L 326.2077 493.216946 
L 328.7466 489.542976 
L 331.2855 488.123416 
L 333.8244 486.081313 
L 336.3633 482.868679 
L 338.9022 478.706297 
L 341.4411 478.213764 
L 343.98 484.405603 
L 346.5189 475.075789 
L 349.0578 473.527555 
L 351.5967 465.987756 
L 354.1356 455.29199 
L 356.6745 467.232808 
L 359.2134 457.775186 
L 361.7523 458.725992 
L 364.2912 450.189944 
L 366.8301 437.126904 
L 369.369 437.584415 
L 371.9079 432.511951 
L 374.4468 425.177487 
L 376.9857 399.280871 
L 382.0635 432.621215 
L 384.6024 435.349429 
L 387.1413 458.29418 
L 389.6802 477.402412 
L 392.2191 484.498955 
L 394.758 490.646996 
L 397.2969 489.111 
L 399.8358 488.634424 
L 402.3747 491.444523 
L 404.9136 487.622398 
L 407.4525 484.935659 
L 409.9914 489.653923 
L 412.5303 488.295981 
L 415.0692 489.838285 
L 420.147 487.120135 
L 422.6859 483.335385 
L 425.2248 484.467861 
L 427.7637 484.559267 
L 430.3026 483.041784 
L 432.8415 485.160245 
L 435.3804 485.796739 
L 437.9193 478.659821 
L 440.4582 482.939825 
L 442.9971 477.705494 
L 445.536 483.292912 
L 448.0749 476.817394 
L 450.6138 480.413386 
L 453.1527 479.872056 
L 455.6916 478.142743 
L 458.2305 480.31292 
L 460.7694 475.818049 
L 463.3083 474.450671 
L 465.8472 470.723802 
L 468.3861 462.256893 
L 470.925 468.486581 
L 473.4639 461.784802 
L 476.0028 462.607375 
L 478.5417 460.493726 
L 481.0806 460.477645 
L 483.6195 471.801802 
L 486.1584 480.760313 
L 488.6973 485.593904 
L 491.2362 477.563203 
L 493.7751 476.551304 
L 496.314 488.309461 
L 498.8529 485.082987 
L 501.3918 480.423146 
L 503.9307 473.393497 
L 506.4696 472.201908 
L 509.0085 464.944095 
L 511.5474 475.003413 
L 514.0863 478.406856 
L 516.6252 477.979448 
L 519.1641 474.739511 
L 521.703 479.222924 
L 524.2419 476.096813 
L 526.7808 479.201981 
L 529.3197 487.361836 
L 531.8586 479.63468 
L 534.3975 482.283969 
L 536.9364 488.906273 
L 539.4753 494.337727 
L 542.0142 491.95181 
L 544.5531 492.697394 
L 547.092 495.687877 
L 549.6309 495.572066 
L 552.1698 499.005077 
L 554.7087 499.430821 
L 557.2476 502.11117 
L 559.7865 502.331479 
L 562.3254 504.966022 
L 564.8643 502.985177 
L 567.4032 497.891286 
L 569.9421 496.285269 
L 572.481 501.318175 
L 575.0199 492.706457 
L 577.5588 490.228062 
L 580.0977 488.477693 
L 582.6366 487.968337 
L 585.1755 487.250688 
L 587.7144 479.714426 
L 590.2533 486.406822 
L 592.7922 483.381392 
L 595.3311 490.195914 
L 597.87 486.80451 
L 600.4089 485.621032 
L 602.9478 489.319514 
L 605.4867 480.808042 
L 608.0256 478.521467 
L 610.5645 484.218109 
L 613.1034 468.453376 
L 615.6423 446.675247 
L 618.1812 438.144794 
L 620.7201 424.816309 
L 623.259 423.125854 
L 623.259 423.125854 
" style="fill:none;stroke:#4a86e8;stroke-dasharray:4.44,1.92;stroke-dashoffset:0;stroke-width:1.2;"/>
   </g>
   <g id="patch_15">
    <path d="M 90.09 527.3784 
L 90.09 393.180988 
" style="fill:none;stroke:#000000;stroke-linecap:square;stroke-linejoin:miter;stroke-width:0.8;"/>
   </g>
   <g id="patch_16">
    <path d="M 648.648 527.3784 
L 648.648 393.180988 
" style="fill:none;stroke:#000000;stroke-linecap:square;stroke-linejoin:miter;stroke-width:0.8;"/>
   </g>
   <g id="patch_17">
    <path d="M 90.09 527.3784 
L 648.648 527.3784 
" style="fill:none;stroke:#000000;stroke-linecap:square;stroke-linejoin:miter;stroke-width:0.8;"/>
   </g>
   <g id="patch_18">
    <path d="M 90.09 393.180988 
L 648.648 393.180988 
" style="fill:none;stroke:#000000;stroke-linecap:square;stroke-linejoin:miter;stroke-width:0.8;"/>
   </g>
   <g id="legend_3">
    <g id="patch_19">
     <path d="M 546.46675 430.537238 
L 641.648 430.537238 
Q 643.648 430.537238 643.648 428.537238 
L 643.648 400.180988 
Q 643.648 398.180988 641.648 398.180988 
L 546.46675 398.180988 
Q 544.46675 398.180988 544.46675 400.180988 
L 544.46675 428.537238 
Q 544.46675 430.537238 546.46675 430.537238 
z
" style="fill:#ffffff;opacity:0.8;stroke:#cccccc;stroke-linejoin:miter;"/>
    </g>
    <g id="line2d_89">
     <path d="M 548.46675 406.279426 
L 568.46675 406.279426 
" style="fill:none;stroke:#e06666;stroke-linecap:square;stroke-width:3;"/>
    </g>
    <g id="line2d_90"/>
    <g id="text_42">
     <!-- ground truth -->
     <g transform="translate(576.46675 409.779426)scale(0.1 -0.1)">
      <use xlink:href="#DejaVuSans-103"/>
      <use x="63.476562" xlink:href="#DejaVuSans-114"/>
      <use x="102.339844" xlink:href="#DejaVuSans-111"/>
      <use x="163.521484" xlink:href="#DejaVuSans-117"/>
      <use x="226.900391" xlink:href="#DejaVuSans-110"/>
      <use x="290.279297" xlink:href="#DejaVuSans-100"/>
      <use x="353.755859" xlink:href="#DejaVuSans-32"/>
      <use x="385.542969" xlink:href="#DejaVuSans-116"/>
      <use x="424.751953" xlink:href="#DejaVuSans-114"/>
      <use x="465.865234" xlink:href="#DejaVuSans-117"/>
      <use x="529.244141" xlink:href="#DejaVuSans-116"/>
      <use x="568.453125" xlink:href="#DejaVuSans-104"/>
     </g>
    </g>
    <g id="line2d_91">
     <path d="M 548.46675 420.957551 
L 568.46675 420.957551 
" style="fill:none;stroke:#4a86e8;stroke-dasharray:4.44,1.92;stroke-dashoffset:0;stroke-width:1.2;"/>
    </g>
    <g id="line2d_92"/>
    <g id="text_43">
     <!-- prediction -->
     <g transform="translate(576.46675 424.457551)scale(0.1 -0.1)">
      <use xlink:href="#DejaVuSans-112"/>
      <use x="63.476562" xlink:href="#DejaVuSans-114"/>
      <use x="102.339844" xlink:href="#DejaVuSans-101"/>
      <use x="163.863281" xlink:href="#DejaVuSans-100"/>
      <use x="227.339844" xlink:href="#DejaVuSans-105"/>
      <use x="255.123047" xlink:href="#DejaVuSans-99"/>
      <use x="310.103516" xlink:href="#DejaVuSans-116"/>
      <use x="349.3125" xlink:href="#DejaVuSans-105"/>
      <use x="377.095703" xlink:href="#DejaVuSans-111"/>
      <use x="438.277344" xlink:href="#DejaVuSans-110"/>
     </g>
    </g>
   </g>
  </g>
 </g>
 <defs>
  <clipPath id="p8efc219134">
   <rect height="134.197412" width="558.558" x="90.09" y="71.1072"/>
  </clipPath>
  <clipPath id="paa616f73c9">
   <rect height="134.197412" width="558.558" x="90.09" y="232.144094"/>
  </clipPath>
  <clipPath id="pea46232294">
   <rect height="134.197412" width="558.558" x="90.09" y="393.180988"/>
  </clipPath>
 </defs>
</svg>
